%TF.GenerationSoftware,Altium Limited,Altium Designer,25.6.2 (33)*%
G04 Layer_Color=32896*
%FSLAX45Y45*%
%MOMM*%
%TF.SameCoordinates,DFF603B5-40A5-4244-BDFB-F1AFFF763E5F*%
%TF.FilePolarity,Positive*%
%TF.FileFunction,Legend,Bot*%
%TF.Part,Single*%
G01*
G75*
%TA.AperFunction,NonConductor*%
%ADD45C,0.15400*%
G36*
X4896463Y1293091D02*
X4447047Y1292779D01*
X4446735Y2575439D01*
Y3768466D01*
X4896150Y3768779D01*
X4896463Y1293091D01*
D02*
G37*
%LPC*%
G36*
X4475780Y3756286D02*
X4470783Y3755037D01*
X4469846Y3754100D01*
X4469221Y3537981D01*
X4470471Y3533608D01*
X4472032Y3532047D01*
X4856799Y3531422D01*
X4859298Y3532047D01*
X4861796Y3535170D01*
X4862421Y3540167D01*
X4862109Y3616059D01*
X4862733Y3626052D01*
X4862109Y3628551D01*
X4860547Y3630112D01*
X4857424Y3631986D01*
X4851490Y3631674D01*
X4794337Y3631986D01*
X4571347D01*
X4559479Y3631362D01*
X4555107Y3632611D01*
X4553545Y3634797D01*
X4552921Y3740358D01*
X4553545Y3752226D01*
X4552609Y3755037D01*
X4550422Y3755974D01*
X4483900Y3755662D01*
X4475780Y3756286D01*
D02*
G37*
G36*
X4784968Y3463339D02*
X4779971Y3462089D01*
X4779034Y3461152D01*
X4778097Y3458966D01*
X4778409Y3346222D01*
X4777785Y3343724D01*
X4776223Y3342162D01*
X4713761Y3341537D01*
X4711262Y3342162D01*
X4710326Y3343724D01*
X4709701Y3448660D01*
X4710326Y3450534D01*
X4709701Y3454906D01*
X4707515Y3456468D01*
X4701581Y3456155D01*
X4641930Y3456468D01*
X4640055Y3455843D01*
X4632560Y3456468D01*
X4628188Y3455843D01*
X4626626Y3454282D01*
X4626002Y3346222D01*
X4624752Y3343099D01*
X4623815Y3342162D01*
X4557606Y3341537D01*
X4555107Y3342162D01*
X4553545Y3343724D01*
X4552921Y3448035D01*
X4553545Y3458029D01*
X4552921Y3460528D01*
X4550735Y3462714D01*
X4478903Y3463339D01*
X4474531Y3462714D01*
X4471408Y3461465D01*
X4469846Y3459903D01*
X4469221Y3246907D01*
X4469846Y3244409D01*
X4473282Y3241598D01*
X4853052Y3240973D01*
X4857424Y3241598D01*
X4860859Y3243159D01*
X4862421Y3245346D01*
X4862109Y3287508D01*
Y3451158D01*
X4862733Y3457405D01*
X4861796Y3460215D01*
X4857424Y3462714D01*
X4784968Y3463339D01*
D02*
G37*
G36*
X4791214Y3193502D02*
X4789340Y3192877D01*
X4781845Y3192253D01*
X4779346Y3191628D01*
X4778097Y3189754D01*
X4778409Y3112614D01*
X4777785Y3110115D01*
X4776848Y3109178D01*
X4473906Y3108554D01*
X4471408Y3107929D01*
X4469846Y3106367D01*
X4469221Y3012674D01*
X4469846Y3010176D01*
X4473906Y3007989D01*
X4480465Y3008302D01*
X4765604Y3007989D01*
X4769977Y3008614D01*
X4774349Y3007989D01*
X4776848Y3007365D01*
X4777785Y3006428D01*
X4778409Y2982068D01*
Y2934596D01*
X4777785Y2928350D01*
X4778409Y2925852D01*
X4779346Y2924915D01*
X4857424Y2924290D01*
X4860859Y2925227D01*
X4862421Y2927413D01*
X4862109Y3182571D01*
X4862733Y3186944D01*
X4861796Y3190379D01*
X4858673Y3192253D01*
X4856799Y3192877D01*
X4791214Y3193502D01*
D02*
G37*
G36*
X4632560Y2876194D02*
X4624440Y2875570D01*
X4616008Y2874633D01*
X4606951Y2874945D01*
X4596957Y2874320D01*
X4592584Y2873696D01*
X4588212Y2872447D01*
X4585713Y2871822D01*
X4581341Y2871197D01*
X4578843Y2870573D01*
X4575720Y2869323D01*
X4568849Y2868699D01*
X4566350Y2868074D01*
X4564476Y2867450D01*
X4561978Y2866825D01*
X4557606Y2863702D01*
X4548861Y2861828D01*
X4545426Y2858393D01*
X4542302Y2857143D01*
X4538242Y2856206D01*
X4536056Y2854020D01*
X4532308Y2850897D01*
X4528873Y2849960D01*
X4525750Y2846837D01*
X4521378Y2844338D01*
X4519191Y2842152D01*
X4517630Y2839966D01*
X4516381Y2839342D01*
X4510134Y2833095D01*
X4508885Y2832471D01*
X4507323Y2830909D01*
X4506699Y2829660D01*
X4505137Y2828098D01*
X4503888Y2827474D01*
X4502951Y2826537D01*
X4502327Y2825288D01*
X4497017Y2819978D01*
X4493894Y2814981D01*
X4492645Y2814357D01*
X4491708Y2813420D01*
X4489834Y2810297D01*
X4488585Y2807174D01*
X4487960Y2805924D01*
X4487023Y2805612D01*
X4484837Y2803426D01*
X4482339Y2796555D01*
X4480777Y2794993D01*
X4477966Y2791558D01*
X4477342Y2786561D01*
X4476092Y2783438D01*
X4472345Y2779690D01*
X4471095Y2771570D01*
X4466099Y2760952D01*
X4465474Y2753456D01*
X4463600Y2745961D01*
X4462663Y2742525D01*
X4462038Y2740027D01*
X4460789Y2733156D01*
X4460165Y2729408D01*
X4459540Y2721913D01*
X4459852Y2675378D01*
X4460477Y2669132D01*
X4461726Y2661637D01*
X4462975Y2656640D01*
X4464849Y2652267D01*
X4465474Y2644772D01*
X4466099Y2640400D01*
X4466723Y2637901D01*
X4470783Y2628844D01*
X4472345Y2622286D01*
X4473906Y2618850D01*
X4476717Y2615415D01*
X4477342Y2612292D01*
X4478591Y2607919D01*
X4480152Y2606358D01*
X4482963Y2602922D01*
X4483588Y2600424D01*
X4485150Y2596364D01*
X4486399Y2595739D01*
X4487336Y2594802D01*
X4489834Y2590430D01*
X4492645Y2587619D01*
X4495456Y2584184D01*
X4496080Y2582934D01*
X4501077Y2577937D01*
X4501702Y2576688D01*
X4507011Y2571379D01*
X4508260Y2570754D01*
X4512633Y2566382D01*
X4513882Y2565757D01*
X4515131Y2564508D01*
X4516381Y2563883D01*
X4518567Y2561697D01*
X4519191Y2560448D01*
X4520753Y2559511D01*
X4522002Y2558886D01*
X4526374Y2557013D01*
X4529185Y2554202D01*
X4533245Y2552640D01*
X4536681Y2551079D01*
X4542614Y2547019D01*
X4548236Y2546394D01*
X4552296Y2544833D01*
X4557293Y2541709D01*
X4559792Y2541085D01*
X4567912Y2540460D01*
X4571035Y2539836D01*
X4576032Y2538586D01*
X4582278Y2537337D01*
X4584776Y2536712D01*
X4588837Y2535775D01*
X4590710Y2535151D01*
X4627563Y2534526D01*
X4633809Y2533902D01*
X4635683Y2533277D01*
X4642242Y2533589D01*
X4840559Y2533277D01*
X4842433Y2533902D01*
X4846805Y2533277D01*
X4854925Y2533902D01*
X4859922Y2535151D01*
X4860859Y2536088D01*
X4862421Y2538274D01*
X4862109Y2629781D01*
X4861484Y2632279D01*
X4859298Y2633841D01*
X4633185Y2634466D01*
X4631311Y2635090D01*
X4609137Y2634778D01*
X4603515Y2635403D01*
X4600080Y2636340D01*
X4597581Y2636964D01*
X4593209Y2637589D01*
X4589461Y2640087D01*
X4585713Y2640712D01*
X4581341Y2641961D01*
X4580404Y2642898D01*
X4576969Y2645709D01*
X4573846Y2646958D01*
X4572284Y2648520D01*
X4571659Y2649769D01*
X4569473Y2651955D01*
X4568224Y2652580D01*
X4561666Y2659138D01*
X4558542Y2664760D01*
X4556044Y2667258D01*
X4554482Y2669444D01*
X4553545Y2672880D01*
X4552921Y2675378D01*
X4551672Y2678502D01*
X4548548Y2683499D01*
X4547924Y2695991D01*
X4547299Y2697865D01*
X4547924Y2722225D01*
X4548548Y2724724D01*
X4551984Y2731907D01*
X4553545Y2735967D01*
X4554170Y2740339D01*
X4558542Y2744712D01*
X4559167Y2745961D01*
X4560416Y2749084D01*
X4561353Y2750021D01*
X4562603Y2750645D01*
X4565413Y2753456D01*
X4566038Y2754705D01*
X4568849Y2756892D01*
X4570098Y2757516D01*
X4571659Y2759702D01*
X4572284Y2760952D01*
X4573846Y2761889D01*
X4575720Y2762513D01*
X4578843Y2763762D01*
X4581966Y2766885D01*
X4584152Y2767823D01*
X4589461Y2768759D01*
X4590086D01*
X4595083Y2770009D01*
X4599455Y2771882D01*
X4601954Y2772507D01*
X4606326Y2773132D01*
X4608824Y2773756D01*
X4610698Y2774381D01*
X4645677Y2775006D01*
X4647551Y2775630D01*
X4854613Y2775318D01*
X4857424Y2775630D01*
X4859922Y2776255D01*
X4861484Y2777816D01*
X4862109Y2860891D01*
X4862733Y2870885D01*
X4862109Y2873383D01*
X4859298Y2875570D01*
X4632560Y2876194D01*
D02*
G37*
G36*
X4580717Y2464569D02*
X4568849Y2463944D01*
X4560104Y2462695D01*
X4556981Y2461446D01*
X4550110Y2460821D01*
X4543864Y2460196D01*
X4540741Y2458947D01*
X4538242Y2456448D01*
X4535119Y2455199D01*
X4530747Y2454575D01*
X4527624Y2453326D01*
X4525750Y2451452D01*
X4520128Y2448329D01*
X4517005Y2445205D01*
X4509822Y2441145D01*
X4509197Y2439896D01*
X4506386Y2437085D01*
X4505137Y2436461D01*
X4502327Y2433650D01*
X4501702Y2432401D01*
X4497954Y2428653D01*
X4494831Y2423031D01*
X4494206Y2421782D01*
X4493269Y2421470D01*
X4492020Y2420220D01*
X4491708Y2419908D01*
X4489834Y2417410D01*
X4489209Y2414911D01*
X4487960Y2411788D01*
X4487023Y2410851D01*
X4485774Y2410227D01*
X4484213Y2408040D01*
X4483588Y2403668D01*
X4481714Y2399296D01*
X4481089Y2398047D01*
X4479216Y2396173D01*
X4478279Y2393986D01*
X4477654Y2388365D01*
X4477029Y2385242D01*
X4475780Y2382119D01*
X4473594Y2376185D01*
X4472345Y2373062D01*
X4471720Y2359944D01*
X4470471Y2352449D01*
X4469846Y2350575D01*
X4469221Y2171309D01*
X4470471Y2168186D01*
X4473594Y2166312D01*
X4843682Y2166624D01*
X4855550Y2165999D01*
X4859922Y2167249D01*
X4861172Y2168498D01*
X4862421Y2171621D01*
X4862109Y2318095D01*
X4861484Y2328089D01*
X4860859Y2339957D01*
X4860235Y2341830D01*
X4859610Y2352449D01*
X4858361Y2357446D01*
X4857111Y2361818D01*
X4855550Y2365254D01*
X4854301Y2368377D01*
X4853364Y2373062D01*
X4852115Y2377434D01*
X4849304Y2380245D01*
X4848055Y2383368D01*
X4847118Y2387428D01*
X4844307Y2390239D01*
X4843058Y2390863D01*
X4842121Y2392425D01*
X4840871Y2395548D01*
X4832127Y2404293D01*
X4828691Y2407103D01*
X4827442Y2407728D01*
X4825256Y2409914D01*
X4824631Y2411164D01*
X4822445Y2412725D01*
X4819947Y2413350D01*
X4816823Y2414599D01*
X4815574Y2415224D01*
X4814013Y2417410D01*
X4809953Y2418971D01*
X4805580Y2419596D01*
X4799959Y2422094D01*
X4793713Y2424593D01*
X4784968Y2425217D01*
X4783094Y2425842D01*
X4762794Y2427404D01*
X4748115Y2427091D01*
X4743743Y2426467D01*
X4741869Y2425842D01*
X4732500Y2425217D01*
X4730001Y2424593D01*
X4719695Y2419908D01*
X4715010Y2418971D01*
X4711887Y2417722D01*
X4708764Y2414599D01*
X4704392Y2412100D01*
X4701893Y2409602D01*
X4696272Y2406479D01*
X4695335Y2405542D01*
X4693461Y2402419D01*
X4688464Y2397422D01*
X4687839Y2396173D01*
X4686278Y2392737D01*
X4685028Y2392113D01*
X4683779Y2390863D01*
X4678158Y2390239D01*
X4675659Y2390863D01*
X4674097Y2392425D01*
X4673473Y2401794D01*
X4671599Y2406167D01*
X4668476Y2410539D01*
X4667851Y2413662D01*
X4666602Y2418659D01*
X4664103Y2421157D01*
X4662542Y2423344D01*
X4661605Y2428028D01*
X4660044Y2429590D01*
X4657857Y2431151D01*
X4655359Y2435524D01*
X4649113Y2441770D01*
X4645365Y2444268D01*
X4644740Y2445518D01*
X4642242Y2448016D01*
X4636308Y2450202D01*
X4633809Y2452701D01*
X4631623Y2454262D01*
X4627563Y2455199D01*
X4625065Y2455824D01*
X4623191Y2456448D01*
X4616320Y2460196D01*
X4611948Y2460821D01*
X4605701Y2461446D01*
X4602266Y2462382D01*
X4597581Y2463319D01*
X4595707Y2463944D01*
X4580717Y2464569D01*
D02*
G37*
G36*
X4653797Y2090420D02*
X4651923Y2089796D01*
X4628188Y2089171D01*
X4623191Y2087922D01*
X4616008Y2085736D01*
X4611011Y2083862D01*
X4598831Y2082925D01*
X4592584Y2081051D01*
X4587587Y2077928D01*
X4583215Y2077303D01*
X4578843Y2076054D01*
X4576969Y2074180D01*
X4573533Y2071994D01*
X4568224Y2071057D01*
X4563852Y2069183D01*
X4559479Y2066060D01*
X4553858Y2064811D01*
X4551359Y2064186D01*
X4548236Y2061063D01*
X4545113Y2059189D01*
X4541990Y2057940D01*
X4538555Y2054505D01*
X4532621Y2052318D01*
X4530434Y2050132D01*
X4526999Y2047322D01*
X4525750Y2046697D01*
X4524500Y2045448D01*
X4518879Y2041075D01*
X4517630Y2040451D01*
X4515131Y2037952D01*
X4510759Y2034829D01*
X4509510Y2034204D01*
X4507948Y2032018D01*
X4504513Y2029208D01*
X4503264Y2028583D01*
X4501702Y2026397D01*
X4501077Y2025147D01*
X4498891Y2022961D01*
X4497642Y2022337D01*
X4496080Y2020150D01*
X4495456Y2018901D01*
X4493894Y2017340D01*
X4491708Y2015778D01*
X4489209Y2011406D01*
X4486086Y2008282D01*
X4482963Y2002661D01*
X4480777Y2000475D01*
X4477966Y1997039D01*
X4477342Y1995166D01*
X4476092Y1993916D01*
X4475468Y1992667D01*
X4474219Y1991418D01*
X4473594Y1989544D01*
X4474219Y1987046D01*
X4477029Y1984235D01*
X4479216Y1983298D01*
X4483276Y1982361D01*
X4486711Y1978925D01*
X4489834Y1977676D01*
X4493269Y1976739D01*
X4494519Y1975490D01*
X4495768Y1974865D01*
X4497017Y1973616D01*
X4500140Y1971742D01*
X4504513Y1970493D01*
X4507636Y1967370D01*
X4508885Y1966745D01*
X4509822Y1965808D01*
X4513882Y1964871D01*
X4517005Y1963622D01*
X4517942Y1962685D01*
X4518567Y1961436D01*
X4522627Y1959250D01*
X4525125Y1958625D01*
X4526999Y1958001D01*
X4528248Y1957376D01*
X4528561Y1956439D01*
X4530434Y1954565D01*
X4533558Y1953316D01*
X4537618Y1952379D01*
X4541990Y1948007D01*
X4544488Y1947382D01*
X4548861Y1946133D01*
X4550422Y1944571D01*
X4551047Y1943322D01*
X4553858Y1941760D01*
X4558855Y1940511D01*
X4562603Y1936763D01*
X4567599Y1934890D01*
X4570098Y1934265D01*
X4573846Y1930517D01*
X4576969Y1929268D01*
X4581341Y1928019D01*
X4582903Y1926457D01*
X4586338Y1923646D01*
X4588837Y1923022D01*
X4591960Y1921773D01*
X4593209Y1921148D01*
X4593521Y1920211D01*
X4596332Y1918025D01*
X4601954Y1916775D01*
X4605077Y1913653D01*
X4607263Y1912091D01*
X4610698Y1911154D01*
X4613821Y1909905D01*
X4616320Y1907406D01*
X4619443Y1905532D01*
X4621941Y1904908D01*
X4625065Y1903658D01*
X4625377Y1902722D01*
X4628812Y1899911D01*
X4631311Y1899286D01*
X4635683Y1898037D01*
X4637245Y1896475D01*
X4637869Y1895226D01*
X4639431Y1894289D01*
X4641617Y1893352D01*
X4645677Y1892415D01*
X4648176Y1889917D01*
X4650362Y1888355D01*
X4653797Y1887418D01*
X4656296Y1886794D01*
X4657233Y1885857D01*
X4657857Y1880860D01*
X4657545Y1880547D01*
X4657233Y1880235D01*
X4652236Y1877112D01*
X4648800Y1874301D01*
X4646614Y1873364D01*
X4643179Y1872427D01*
X4641617Y1870866D01*
X4638182Y1868055D01*
X4635059Y1867430D01*
X4631935Y1866181D01*
X4630686Y1864307D01*
X4627251Y1862121D01*
X4623815Y1861184D01*
X4620692Y1859935D01*
X4619755Y1858998D01*
X4619131Y1857749D01*
X4616945Y1856187D01*
X4611323Y1854938D01*
X4608200Y1851815D01*
X4603827Y1849316D01*
X4599455Y1848067D01*
X4596957Y1845569D01*
X4594771Y1844007D01*
X4591335Y1843070D01*
X4588212Y1841821D01*
X4585089Y1838698D01*
X4582903Y1837761D01*
X4578843Y1836824D01*
X4575720Y1833701D01*
X4572596Y1831827D01*
X4567599Y1830578D01*
X4563852Y1826830D01*
X4560728Y1825581D01*
X4556356Y1824332D01*
X4552609Y1820584D01*
X4549485Y1819335D01*
X4545113Y1818085D01*
X4541678Y1814650D01*
X4537618Y1813088D01*
X4535119Y1812464D01*
X4532621Y1809965D01*
X4528248Y1807467D01*
X4523876Y1806218D01*
X4522939Y1805281D01*
X4522314Y1804031D01*
X4519191Y1802157D01*
X4515756Y1801221D01*
X4512633Y1799971D01*
X4510447Y1797160D01*
X4506386Y1795599D01*
X4502014Y1794350D01*
X4497642Y1789977D01*
X4493894Y1789353D01*
X4490771Y1788104D01*
X4489209Y1786542D01*
X4485774Y1783731D01*
X4483276Y1783106D01*
X4480152Y1781857D01*
X4478903Y1780608D01*
X4476717Y1779046D01*
X4473594Y1777797D01*
X4472032Y1775611D01*
X4472345Y1774050D01*
X4476092Y1771551D01*
X4478591Y1767179D01*
X4481714Y1764056D01*
X4484837Y1758434D01*
X4489209Y1754062D01*
X4489834Y1751563D01*
X4494206Y1747191D01*
X4494831Y1745942D01*
X4502639Y1738134D01*
X4503888Y1737509D01*
X4508885Y1732512D01*
X4512008Y1730638D01*
X4512945Y1729077D01*
X4514507Y1726891D01*
X4517630Y1725017D01*
X4519816Y1722830D01*
X4520441Y1721581D01*
X4524500Y1718771D01*
X4525750Y1718146D01*
X4526687Y1717209D01*
X4527311Y1715960D01*
X4528248Y1715647D01*
X4529185Y1714711D01*
X4535119Y1712524D01*
X4538242Y1709401D01*
X4541365Y1707527D01*
X4545738Y1706278D01*
X4547299Y1704716D01*
X4550735Y1701906D01*
X4553233Y1701281D01*
X4556356Y1700032D01*
X4558855Y1697533D01*
X4561041Y1695972D01*
X4568224Y1694410D01*
X4569786Y1692849D01*
X4573533Y1690350D01*
X4579467Y1689413D01*
X4581966Y1688789D01*
X4586338Y1686915D01*
X4591335Y1683792D01*
X4598206Y1683167D01*
X4604764Y1680356D01*
X4611323Y1678795D01*
X4613197Y1678170D01*
X4625689Y1677546D01*
X4630062Y1676921D01*
X4633497Y1675984D01*
X4636620Y1675359D01*
X4642554Y1674422D01*
X4644428Y1673798D01*
X4650986Y1674110D01*
X4684404Y1675047D01*
X4686902Y1675672D01*
X4690025Y1676921D01*
X4701268Y1677546D01*
X4703767Y1678170D01*
X4709076Y1679732D01*
X4713136Y1680669D01*
X4717509Y1682542D01*
X4725629Y1683167D01*
X4730626Y1684416D01*
X4736872Y1688789D01*
X4740620Y1689413D01*
X4745617Y1690663D01*
X4747490Y1692536D01*
X4750926Y1694723D01*
X4756860Y1695660D01*
X4759983Y1696909D01*
X4760920Y1697846D01*
X4761544Y1699095D01*
X4762481Y1699407D01*
X4763418Y1700344D01*
X4768103Y1701281D01*
X4771538Y1702843D01*
X4772163Y1704092D01*
X4773100Y1705029D01*
X4774349Y1705653D01*
X4775286Y1706590D01*
X4778721Y1707527D01*
X4780283Y1709089D01*
X4781845Y1711275D01*
X4784968Y1713149D01*
X4788091Y1714398D01*
X4789652Y1715960D01*
X4790277Y1717209D01*
X4793400Y1719083D01*
X4796835Y1720020D01*
X4799334Y1723143D01*
X4803706Y1725641D01*
X4810890Y1732825D01*
X4811514Y1734074D01*
X4814325Y1736885D01*
X4815574Y1737509D01*
X4817136Y1739071D01*
X4817760Y1740320D01*
X4819947Y1742506D01*
X4821196Y1743131D01*
X4824007Y1746566D01*
X4824631Y1747815D01*
X4825568Y1748128D01*
X4826817Y1749377D01*
X4828067Y1750002D01*
X4829628Y1752188D01*
X4830253Y1753437D01*
X4831814Y1754999D01*
X4833064Y1755623D01*
X4834625Y1757185D01*
X4835875Y1760308D01*
X4836499Y1762806D01*
X4839622Y1765929D01*
X4841184Y1768116D01*
X4842121Y1771551D01*
X4846493Y1775923D01*
X4847742Y1779046D01*
X4848367Y1781545D01*
X4851490Y1784668D01*
X4853052Y1786854D01*
X4853989Y1790290D01*
X4855238Y1793413D01*
X4858361Y1796536D01*
X4858985Y1799659D01*
X4859610Y1802157D01*
X4860235Y1806530D01*
X4862733Y1810278D01*
X4865232Y1814650D01*
X4865856Y1820271D01*
X4868355Y1825893D01*
X4870853Y1830266D01*
X4871478Y1844632D01*
X4872103Y1847130D01*
X4873976Y1854001D01*
X4875225Y1858998D01*
X4875850Y1860872D01*
X4876475Y1864620D01*
X4877099Y1866494D01*
X4876787Y1880547D01*
X4875850Y1907094D01*
X4873976Y1913340D01*
X4872103Y1917712D01*
X4871478Y1927082D01*
X4870853Y1929580D01*
X4869604Y1933953D01*
X4868355Y1937076D01*
X4866481Y1941448D01*
X4865856Y1948319D01*
X4864607Y1952691D01*
X4863045Y1954253D01*
X4860235Y1957688D01*
X4859610Y1961436D01*
X4858985Y1963935D01*
X4856799Y1967995D01*
X4853676Y1972991D01*
X4852739Y1977676D01*
X4850241Y1981424D01*
X4848055Y1984859D01*
X4846493Y1988919D01*
X4844931Y1990481D01*
X4842121Y1993916D01*
X4841496Y1996415D01*
X4839934Y1997976D01*
X4837748Y1999538D01*
X4834625Y2005160D01*
X4833688Y2006096D01*
X4832439Y2006721D01*
X4831502Y2007658D01*
X4828379Y2013280D01*
X4825256Y2016403D01*
X4822445Y2021712D01*
X4819322Y2023586D01*
X4816511Y2026397D01*
X4813076Y2029208D01*
X4811827Y2029832D01*
X4807454Y2034204D01*
X4806205Y2034829D01*
X4804956Y2036078D01*
X4803706Y2036703D01*
X4799959Y2040451D01*
X4798709Y2041075D01*
X4797460Y2042325D01*
X4796211Y2042949D01*
X4795274Y2043886D01*
X4794649Y2045135D01*
X4791839Y2047322D01*
X4790589Y2047946D01*
X4787466Y2051069D01*
X4784343Y2052943D01*
X4779971Y2054192D01*
X4776848Y2057315D01*
X4774662Y2058877D01*
X4770602Y2059814D01*
X4768103Y2062312D01*
X4765917Y2063874D01*
X4759983Y2066060D01*
X4755611Y2070432D01*
X4751238Y2071057D01*
X4746866Y2072306D01*
X4739058Y2076366D01*
X4733124Y2077303D01*
X4730626Y2077928D01*
X4727503Y2079177D01*
X4723130Y2082300D01*
X4717196Y2083237D01*
X4712199Y2083862D01*
X4707202Y2085111D01*
X4700956Y2086360D01*
X4698458Y2086985D01*
X4694398Y2087922D01*
X4692524Y2088546D01*
X4679407Y2089171D01*
X4677533Y2089796D01*
X4653797Y2090420D01*
D02*
G37*
G36*
X4470783Y1621329D02*
X4469846Y1620393D01*
X4469221Y1504838D01*
X4470471Y1499841D01*
X4473282Y1497654D01*
X4475780Y1497030D01*
X4477966Y1494844D01*
X4478591Y1493594D01*
X4481714Y1491721D01*
X4485774Y1490784D01*
X4486711Y1489847D01*
X4488272Y1487660D01*
X4490459Y1486099D01*
X4493894Y1485162D01*
X4498266Y1480790D01*
X4501390Y1479540D01*
X4503888Y1478916D01*
X4508260Y1474543D01*
X4513257Y1472670D01*
X4517005Y1468922D01*
X4522002Y1467048D01*
X4526374Y1462676D01*
X4532621Y1460177D01*
X4535119Y1457679D01*
X4538242Y1455805D01*
X4541365Y1454556D01*
X4545738Y1450183D01*
X4548236Y1449559D01*
X4551672Y1447997D01*
X4552296Y1446748D01*
X4555107Y1444562D01*
X4560104Y1442688D01*
X4561041Y1441751D01*
X4562603Y1439565D01*
X4564789Y1438003D01*
X4568849Y1437066D01*
X4571972Y1433943D01*
X4574158Y1432381D01*
X4578218Y1430820D01*
X4582590Y1426448D01*
X4585089Y1425823D01*
X4588212Y1424574D01*
X4589773Y1423012D01*
X4590398Y1421763D01*
X4596957Y1418328D01*
X4598206Y1417703D01*
X4598518Y1416766D01*
X4601329Y1414580D01*
X4603203Y1413955D01*
X4606326Y1412706D01*
X4607263Y1411769D01*
X4610698Y1408958D01*
X4611948Y1408333D01*
X4612885Y1407397D01*
X4614758Y1404274D01*
X4614134Y1401150D01*
X4611948Y1399589D01*
X4605389Y1399901D01*
X4483900Y1399589D01*
X4475780Y1400214D01*
X4470783Y1398964D01*
X4469846Y1398027D01*
X4469221Y1373042D01*
Y1302460D01*
X4471408Y1300274D01*
X4856175Y1299649D01*
X4860547Y1300274D01*
X4862733Y1303085D01*
X4862421Y1306520D01*
X4861796Y1472045D01*
X4861172Y1480165D01*
X4860547Y1483913D01*
X4859922Y1486411D01*
X4859298Y1496405D01*
X4858361Y1500465D01*
X4857111Y1503588D01*
X4853989Y1510459D01*
X4853364Y1517330D01*
X4852739Y1519829D01*
X4851178Y1521390D01*
X4848367Y1524825D01*
X4847742Y1528573D01*
X4846181Y1532633D01*
X4844931Y1533258D01*
X4843058Y1535132D01*
X4840871Y1541066D01*
X4839310Y1542627D01*
X4838061Y1543252D01*
X4835250Y1547312D01*
X4834625Y1548561D01*
X4833064Y1550123D01*
X4831814Y1550747D01*
X4830253Y1552933D01*
X4826817Y1555744D01*
X4825568Y1556369D01*
X4823070Y1560117D01*
X4817448Y1563240D01*
X4816511Y1564177D01*
X4815886Y1565426D01*
X4814325Y1566363D01*
X4813076Y1566987D01*
X4808703Y1568861D01*
X4807142Y1570423D01*
X4806517Y1571672D01*
X4804331Y1573234D01*
X4800583Y1573858D01*
X4797460Y1575108D01*
X4796211Y1575732D01*
X4793400Y1578543D01*
X4789965Y1579480D01*
X4785592Y1580105D01*
X4774349Y1585101D01*
X4762481Y1585726D01*
X4759983Y1586351D01*
X4758109Y1586975D01*
X4746241Y1587600D01*
X4744367Y1588225D01*
X4725004Y1586975D01*
X4723130Y1586351D01*
X4710950Y1585414D01*
X4706890Y1584477D01*
X4703767Y1583228D01*
X4699395Y1581354D01*
X4696272Y1580105D01*
X4691275Y1578855D01*
X4688151Y1577606D01*
X4685028Y1574483D01*
X4681905Y1573858D01*
X4677533Y1572609D01*
X4676596Y1571672D01*
X4675971Y1570423D01*
X4675034Y1569486D01*
X4670662Y1566987D01*
X4669413Y1566363D01*
X4669100Y1565426D01*
X4667851Y1564177D01*
X4664416Y1561366D01*
X4663166Y1560741D01*
X4657857Y1555432D01*
X4657233Y1554183D01*
X4652860Y1549810D01*
X4650986Y1546687D01*
X4646302Y1542003D01*
X4645365Y1538567D01*
X4644116Y1535444D01*
X4641617Y1532946D01*
X4639743Y1529822D01*
X4639119Y1525450D01*
X4638494Y1522952D01*
X4636620Y1519829D01*
X4634122Y1515456D01*
X4633497Y1509835D01*
X4632872Y1505462D01*
X4630062Y1503901D01*
X4625689Y1505774D01*
X4621317Y1508273D01*
X4618194Y1511396D01*
X4612572Y1514519D01*
X4611323Y1515144D01*
X4608200Y1518267D01*
X4605077Y1520141D01*
X4601954Y1523264D01*
X4597581Y1526387D01*
X4596332Y1527012D01*
X4596020Y1527949D01*
X4592897Y1531072D01*
X4588837Y1532633D01*
X4585713Y1535756D01*
X4581341Y1538255D01*
X4577593Y1542003D01*
X4573221Y1544501D01*
X4572284Y1545438D01*
X4571659Y1546687D01*
X4568849Y1549498D01*
X4566350Y1550123D01*
X4565413Y1551060D01*
X4561978Y1553870D01*
X4557606Y1556369D01*
X4553233Y1560741D01*
X4550110Y1561991D01*
X4548548Y1563552D01*
X4547924Y1564801D01*
X4546362Y1566363D01*
X4541990Y1568861D01*
X4538867Y1571984D01*
X4534495Y1574483D01*
X4533245Y1575108D01*
X4530747Y1577606D01*
X4527624Y1579480D01*
X4523251Y1583852D01*
X4518879Y1586351D01*
X4516693Y1588537D01*
X4516068Y1589786D01*
X4510759Y1592597D01*
X4509510Y1593222D01*
X4507011Y1595720D01*
X4503888Y1597594D01*
X4499516Y1601966D01*
X4495143Y1604465D01*
X4494206Y1605402D01*
X4493582Y1606651D01*
X4492645Y1607588D01*
X4487023Y1610711D01*
X4485774Y1611960D01*
X4481402Y1615083D01*
X4480152Y1615708D01*
X4477342Y1618519D01*
X4476717Y1619768D01*
X4475780Y1620705D01*
X4470783Y1621329D01*
D02*
G37*
%LPD*%
G36*
X4754986Y2334647D02*
X4758421Y2333710D01*
X4766229Y2330900D01*
X4769352Y2329650D01*
X4770914Y2327464D01*
X4774349Y2324653D01*
X4775599Y2324029D01*
X4778409Y2318720D01*
X4780908Y2316221D01*
X4782469Y2314035D01*
X4783406Y2309975D01*
X4784031Y2305602D01*
X4785905Y2298732D01*
X4786529Y2296858D01*
X4787154Y2276245D01*
X4786529Y2269999D01*
X4783718Y2267188D01*
X4781220Y2266564D01*
X4779346Y2265939D01*
X4773412Y2266251D01*
X4726253Y2265939D01*
X4724379Y2266564D01*
X4715010Y2265939D01*
X4710013Y2267188D01*
X4707202Y2270624D01*
X4706578Y2282491D01*
X4707202Y2292485D01*
X4707827Y2296858D01*
Y2297482D01*
X4709076Y2301230D01*
X4709701Y2308726D01*
X4710950Y2313723D01*
X4713449Y2316221D01*
X4716572Y2321843D01*
X4717196Y2323092D01*
X4718758Y2324029D01*
X4720007Y2324653D01*
X4722193Y2326840D01*
X4725629Y2329650D01*
X4728752Y2330900D01*
X4733749Y2332149D01*
X4739371Y2334647D01*
X4750614Y2335272D01*
X4754986Y2334647D01*
D02*
G37*
G36*
X4591023Y2364317D02*
X4596332Y2363380D01*
X4598831Y2362755D01*
X4602266Y2361818D01*
X4604764Y2361194D01*
X4608824Y2360257D01*
X4612572Y2356509D01*
X4613821Y2355885D01*
X4615071Y2354635D01*
X4616320Y2354011D01*
X4617882Y2352449D01*
X4622254Y2346827D01*
X4622878Y2344329D01*
X4623815Y2343392D01*
X4626938Y2338395D01*
X4627563Y2332149D01*
X4628188Y2329650D01*
X4629125Y2324966D01*
X4629749Y2323092D01*
Y2322467D01*
Y2319969D01*
X4630374Y2318095D01*
X4630999Y2271248D01*
X4629749Y2268125D01*
X4627563Y2266564D01*
X4551984Y2265939D01*
X4549485Y2266564D01*
X4547612Y2267188D01*
X4544801Y2270624D01*
X4544176Y2276870D01*
X4544801Y2278744D01*
X4544488Y2287801D01*
X4544801Y2293110D01*
X4545738Y2311536D01*
X4546675Y2316846D01*
X4547299Y2318720D01*
X4547924Y2331212D01*
X4548548Y2333710D01*
X4553233Y2342767D01*
X4554170Y2346827D01*
X4557606Y2350263D01*
X4560416Y2353698D01*
X4564164Y2356197D01*
X4564789Y2357446D01*
X4566975Y2359632D01*
X4570098Y2360881D01*
X4572596Y2361506D01*
X4576657Y2363068D01*
X4581341Y2364005D01*
X4583215Y2364629D01*
X4591023Y2364317D01*
D02*
G37*
G36*
X4743118Y1483913D02*
X4747490Y1483288D01*
X4749989Y1482664D01*
X4753112Y1481414D01*
X4758734Y1480790D01*
X4761857Y1479540D01*
X4762169Y1478604D01*
X4764355Y1476417D01*
X4767478Y1474543D01*
X4768728Y1473294D01*
X4769977Y1472670D01*
X4772163Y1470483D01*
X4772788Y1469234D01*
X4776223Y1465799D01*
X4779346Y1460802D01*
X4780283Y1457366D01*
X4783406Y1452994D01*
X4784343Y1450808D01*
X4784968Y1442688D01*
X4785280Y1442376D01*
X4785905Y1439252D01*
X4786529Y1437378D01*
X4787154Y1403024D01*
X4785592Y1399589D01*
X4686278Y1398964D01*
X4685341Y1399901D01*
X4684716Y1438628D01*
X4687839Y1446748D01*
X4689088Y1451120D01*
X4690338Y1454243D01*
X4690962Y1459240D01*
X4691587Y1461739D01*
X4693773Y1462676D01*
X4695959Y1464862D01*
X4697209Y1467985D01*
X4702518Y1473294D01*
X4705641Y1475168D01*
X4708139Y1475793D01*
X4710013Y1477667D01*
X4714386Y1480790D01*
X4718133Y1481414D01*
X4723442Y1482976D01*
X4725941Y1483601D01*
X4734061Y1484225D01*
X4743118Y1483913D01*
D02*
G37*
D45*
X4546213Y3817229D02*
X4477968D01*
X4443846Y3851351D01*
X4477968Y3885473D01*
X4546213D01*
X4529152Y3919596D02*
X4546213Y3936657D01*
Y3970779D01*
X4529152Y3987840D01*
X4460907D01*
X4443846Y3970779D01*
Y3936657D01*
X4460907Y3919596D01*
X4529152D01*
X4443846Y4021963D02*
X4460907D01*
Y4039024D01*
X4443846D01*
Y4021963D01*
Y4107269D02*
Y4141391D01*
Y4124330D01*
X4546213D01*
X4529152Y4107269D01*
%TF.MD5,fbbe2abe4af971c5cf186ac823d18269*%
M02*
