%TF.GenerationSoftware,Altium Limited,Altium Designer,25.6.2 (33)*%
G04 Layer_Physical_Order=1*
G04 Layer_Color=255*
%FSLAX45Y45*%
%MOMM*%
%TF.SameCoordinates,15D36C4B-3844-4F14-8141-44B8E1ADB722*%
%TF.FilePolarity,Positive*%
%TF.FileFunction,Copper,L1,Top,Signal*%
%TF.Part,Single*%
G01*
G75*
%TA.AperFunction,SMDPad,CuDef*%
%ADD10R,1.20000X1.40000*%
%ADD11C,1.50876*%
%ADD12R,1.60000X1.50000*%
%ADD13R,0.81213X0.75814*%
%ADD14R,0.80000X0.90000*%
%ADD15R,0.75814X0.81213*%
%ADD16R,1.35000X0.95000*%
%ADD17R,5.80000X6.20000*%
%ADD18R,0.65000X1.52500*%
%ADD19R,0.95000X1.40000*%
%ADD20R,1.40000X0.95000*%
%ADD21R,1.47500X0.30000*%
%ADD22R,1.35490X1.85822*%
%ADD23R,1.55000X1.00000*%
%ADD24R,0.85000X0.75000*%
%ADD25R,1.85822X1.35490*%
%ADD26R,0.40640X0.99060*%
%ADD27R,0.30000X1.47500*%
%ADD28R,1.60000X3.00000*%
%ADD29R,1.40000X0.60000*%
%ADD30R,0.75000X1.40000*%
%TA.AperFunction,Conductor*%
%ADD31C,0.20000*%
%ADD32C,0.50000*%
%ADD33C,1.00000*%
%TA.AperFunction,ViaPad*%
%ADD34C,0.60000*%
%TA.AperFunction,ComponentPad*%
%ADD35R,1.55000X1.55000*%
%ADD36C,1.55000*%
%ADD37R,1.40000X1.40000*%
%ADD38C,1.40000*%
%ADD39C,1.10000*%
%ADD40R,1.40000X1.40000*%
%TA.AperFunction,ViaPad*%
%ADD41C,4.50000*%
G36*
X4123545Y4964484D02*
X4123546Y4964484D01*
Y4964485D01*
X4145378Y4965557D01*
X4226490Y4961572D01*
X4306821Y4949656D01*
X4385597Y4929924D01*
X4462060Y4902565D01*
X4535473Y4867843D01*
X4605129Y4826093D01*
X4670358Y4777716D01*
X4730531Y4723179D01*
X4785068Y4663006D01*
X4833445Y4597778D01*
X4875195Y4528121D01*
X4909917Y4454708D01*
X4937276Y4378245D01*
X4957008Y4299469D01*
X4966638Y4234548D01*
X4966638Y4234547D01*
X4966638D01*
X4966659Y4234528D01*
Y877346D01*
X4967298Y874133D01*
X4968257Y854622D01*
X4964272Y773510D01*
X4952356Y693179D01*
X4932623Y614403D01*
X4905265Y537940D01*
X4870543Y464527D01*
X4828792Y394870D01*
X4780416Y329642D01*
X4725878Y269469D01*
X4665706Y214932D01*
X4600477Y166555D01*
X4530821Y124805D01*
X4457408Y90083D01*
X4380945Y62724D01*
X4302169Y42992D01*
X4237247Y33362D01*
X4237247Y33362D01*
Y33362D01*
X4237228Y33341D01*
X894647D01*
X890517Y34286D01*
X890105Y34562D01*
X876454Y37505D01*
X876454Y37504D01*
X854622Y36432D01*
X773510Y40416D01*
X693179Y52332D01*
X614403Y72065D01*
X537940Y99424D01*
X464527Y134146D01*
X394870Y175896D01*
X329642Y224273D01*
X269469Y278810D01*
X214932Y338983D01*
X166555Y404211D01*
X124805Y473867D01*
X90083Y547280D01*
X62724Y623743D01*
X42992Y702520D01*
X33362Y767441D01*
X33362Y767442D01*
X33362D01*
X33340Y767461D01*
Y4114422D01*
X33967Y4123020D01*
X33967Y4123021D01*
X32894Y4144853D01*
X36879Y4225965D01*
X48795Y4306296D01*
X68527Y4385072D01*
X95886Y4461535D01*
X130608Y4534948D01*
X172358Y4604604D01*
X220735Y4669833D01*
X275272Y4730006D01*
X335445Y4784543D01*
X400674Y4832920D01*
X470330Y4874670D01*
X543743Y4909392D01*
X620206Y4936751D01*
X698982Y4956483D01*
X763904Y4966113D01*
X763904Y4966113D01*
Y4966113D01*
X763923Y4966134D01*
X4104389Y4966134D01*
X4123545Y4964484D01*
D02*
G37*
%LPC*%
G36*
X2467874Y4778500D02*
X2448126D01*
X2429051Y4773389D01*
X2411949Y4763515D01*
X2397985Y4749551D01*
X2388111Y4732449D01*
X2385672Y4723346D01*
X2378263Y4712349D01*
X2363000Y4709047D01*
X2362792Y4709088D01*
X2362791Y4709088D01*
X1473001D01*
X1473000Y4709088D01*
X1461295Y4706759D01*
X1451371Y4700129D01*
X1451371Y4700128D01*
X1336460Y4585218D01*
X1332739Y4587366D01*
X1309849Y4593500D01*
X1286151D01*
X1263261Y4587366D01*
X1242739Y4575518D01*
X1225982Y4558761D01*
X1214133Y4538239D01*
X1208000Y4515349D01*
Y4491651D01*
X1214133Y4468761D01*
X1225982Y4448239D01*
X1242739Y4431482D01*
X1263261Y4419634D01*
X1267412Y4418521D01*
Y4060578D01*
X1267412Y4060577D01*
X1269741Y4048872D01*
X1276371Y4038948D01*
X1396641Y3918678D01*
X1388988Y3900200D01*
X1268450D01*
Y3845788D01*
X1160425D01*
X964885Y4041329D01*
X954961Y4047959D01*
X943256Y4050288D01*
X941699Y4069437D01*
Y4087200D01*
X766699D01*
Y4056438D01*
X684199D01*
Y4115850D01*
X569199D01*
Y3957651D01*
X549199Y3948511D01*
X539199Y3956245D01*
Y4115850D01*
X424199D01*
Y4061438D01*
X333054D01*
Y4098350D01*
X158054D01*
Y3963350D01*
X333054D01*
Y4000263D01*
X424199D01*
Y3935850D01*
X466947D01*
X538575Y3864222D01*
X538576Y3864221D01*
X548499Y3857591D01*
X560205Y3855263D01*
X975907D01*
X1087598Y3743572D01*
X1087598Y3743571D01*
X1097521Y3736941D01*
X1109227Y3734613D01*
X1268450D01*
Y3695788D01*
X1066549D01*
X960508Y3801829D01*
X950584Y3808459D01*
X938879Y3810788D01*
X938878Y3810788D01*
X718607D01*
X706806Y3822588D01*
X688429Y3830200D01*
X668538D01*
X650161Y3822588D01*
X636096Y3808523D01*
X628484Y3790146D01*
Y3773458D01*
X605984Y3750958D01*
X585984Y3758269D01*
Y3782700D01*
X410984D01*
Y3745788D01*
X331451D01*
Y3782699D01*
X156451D01*
Y3647699D01*
X331451D01*
Y3684613D01*
X410984D01*
Y3647700D01*
X585984D01*
Y3684613D01*
X613482D01*
X613484Y3684612D01*
X625189Y3686941D01*
X635113Y3693571D01*
X671741Y3730200D01*
X688429D01*
X706806Y3737812D01*
X718607Y3749613D01*
X926209D01*
X1032249Y3643572D01*
X1032250Y3643572D01*
X1082250Y3593572D01*
X1082250Y3593571D01*
X1092173Y3586941D01*
X1103879Y3584613D01*
X1268450D01*
Y3580200D01*
X1441079D01*
Y3550200D01*
X1268450D01*
Y3545788D01*
X732093D01*
X732092Y3545788D01*
X720386Y3543460D01*
X710463Y3536829D01*
X710462Y3536828D01*
X621812Y3448178D01*
X469200D01*
X469199Y3448178D01*
X457494Y3445850D01*
X447570Y3439219D01*
X447570Y3439218D01*
X435855Y3427503D01*
X429224Y3417580D01*
X426896Y3405875D01*
X426896Y3405873D01*
Y3382590D01*
X377484D01*
Y3283678D01*
X320483D01*
Y3310590D01*
X195483D01*
Y3195590D01*
X320483D01*
Y3222503D01*
X377484D01*
Y3202590D01*
X537483D01*
Y3382590D01*
X555656Y3387003D01*
X634481D01*
X634482Y3387002D01*
X646187Y3389331D01*
X656111Y3395961D01*
X744762Y3484613D01*
X1080521D01*
X1088175Y3466135D01*
X950998Y3328959D01*
X944368Y3319035D01*
X942039Y3307330D01*
X942039Y3307328D01*
Y3193454D01*
X932391Y3185830D01*
X912483Y3189591D01*
Y3189590D01*
X787484D01*
Y3131224D01*
X707483D01*
Y3162590D01*
X547484D01*
Y2982590D01*
X707483D01*
Y3070048D01*
X813528D01*
X813529Y3070048D01*
X825235Y3072377D01*
X828547Y3074590D01*
X912484D01*
Y3084703D01*
X922473Y3086691D01*
X932397Y3093321D01*
X994255Y3155180D01*
X994256Y3155180D01*
X1000886Y3165104D01*
X1003215Y3176809D01*
X1003215Y3176810D01*
Y3294660D01*
X1143167Y3434613D01*
X1268450D01*
Y3380201D01*
Y3280200D01*
X1455950D01*
Y3365062D01*
X1459951Y3384612D01*
X1471656Y3386941D01*
X1481580Y3393572D01*
X1493295Y3405287D01*
X1493295Y3405287D01*
X1499926Y3415211D01*
X1502255Y3426916D01*
X1502254Y3426917D01*
Y3886909D01*
X1502255Y3886910D01*
X1499926Y3898616D01*
X1498833Y3900251D01*
X1509027Y3920250D01*
X2096000D01*
Y4107750D01*
X1476000D01*
Y3951965D01*
X1457523Y3944312D01*
X1328588Y4073247D01*
Y4418521D01*
X1332739Y4419634D01*
X1353261Y4431482D01*
X1370018Y4448239D01*
X1381866Y4468761D01*
X1388000Y4491651D01*
Y4515349D01*
X1381866Y4538239D01*
X1379718Y4541960D01*
X1399248Y4561490D01*
X1417679Y4551638D01*
X1417412Y4550293D01*
X1417412Y4550291D01*
Y4326513D01*
X1417412Y4326512D01*
X1419741Y4314806D01*
X1426371Y4304883D01*
X1494382Y4236872D01*
X1494383Y4236871D01*
X1504306Y4230241D01*
X1516011Y4227912D01*
X1516013Y4227912D01*
X2106611D01*
X2310507Y4024017D01*
Y3917319D01*
X2303550Y3900200D01*
X2116050D01*
Y3780200D01*
Y3680200D01*
Y3580200D01*
Y3480200D01*
Y3380201D01*
Y3280200D01*
X2303550D01*
Y3284613D01*
X2338001D01*
Y3124499D01*
X2216411Y3002909D01*
X2047990D01*
X2038002Y3022909D01*
X2039260Y3024792D01*
X2041588Y3036497D01*
X2041588Y3036499D01*
Y3072650D01*
X2096000D01*
Y3260150D01*
X1476000D01*
Y3072650D01*
X1780412D01*
Y3045260D01*
X1678123Y2942971D01*
X1214295D01*
X1202590Y2940642D01*
X1192666Y2934012D01*
X1192666Y2934011D01*
X1098662Y2840007D01*
X1092031Y2830084D01*
X1089702Y2818378D01*
X1089703Y2818377D01*
Y2479172D01*
X1049105D01*
Y2286672D01*
X1154105D01*
Y2479172D01*
X1150878D01*
Y2554322D01*
X1175218D01*
Y2449474D01*
X1175217Y2449472D01*
X1176105Y2445009D01*
Y2286672D01*
X1183395D01*
Y2230156D01*
X1179948Y2221833D01*
Y2201942D01*
X1187560Y2183565D01*
X1201625Y2169500D01*
X1220002Y2161888D01*
X1239893D01*
X1258271Y2169500D01*
X1272336Y2183565D01*
X1279948Y2201942D01*
Y2221833D01*
X1275158Y2233396D01*
Y2286672D01*
X1281105D01*
Y2479172D01*
X1236393D01*
Y2554322D01*
X1273305D01*
Y2734321D01*
X1150878D01*
Y2805708D01*
X1226965Y2881795D01*
X1649785D01*
X1657438Y2863318D01*
X1460347Y2666226D01*
X1453716Y2656303D01*
X1451387Y2644597D01*
X1451388Y2644596D01*
Y2479172D01*
X1430105D01*
Y2286672D01*
X1535105D01*
Y2343139D01*
X1555105Y2349852D01*
X1564423Y2340534D01*
X1582800Y2332922D01*
X1602692D01*
X1617014Y2338855D01*
X1630836Y2332976D01*
X1637014Y2328195D01*
Y2254888D01*
X1423916Y2041790D01*
X1154397D01*
X1142691Y2039462D01*
X1132768Y2032832D01*
X1079977Y1980040D01*
X1073346Y1970117D01*
X1071017Y1958411D01*
X1071018Y1958410D01*
Y1936772D01*
X1049105D01*
Y1744272D01*
X1071018D01*
Y1683358D01*
X1070455Y1682516D01*
X1068126Y1670811D01*
X1068127Y1670809D01*
Y1600206D01*
X1012900D01*
Y1478993D01*
X1128714D01*
Y1564585D01*
X1129302Y1567541D01*
Y1661154D01*
X1129865Y1661996D01*
X1132193Y1673702D01*
X1132193Y1673703D01*
Y1730130D01*
X1135687Y1733624D01*
X1157208Y1726860D01*
X1157424Y1725647D01*
Y1416800D01*
X1143306D01*
Y1351694D01*
X1140862Y1349250D01*
X1130916Y1334365D01*
X1127424Y1316807D01*
Y899800D01*
X1075805D01*
Y704800D01*
X1270805D01*
Y899800D01*
X1219187D01*
Y1286800D01*
X1263305D01*
Y1416800D01*
X1249187D01*
Y1464851D01*
X1263329Y1478993D01*
X1288348Y1478993D01*
X1308348Y1478993D01*
X1347424D01*
Y1416800D01*
X1333305D01*
Y1286800D01*
X1377424D01*
Y888393D01*
X1363439Y880320D01*
X1345286Y862166D01*
X1332450Y839934D01*
X1325805Y815136D01*
Y789464D01*
X1332450Y764666D01*
X1345286Y742434D01*
X1363439Y724281D01*
X1385672Y711445D01*
X1410469Y704800D01*
X1436141D01*
X1460939Y711445D01*
X1483172Y724281D01*
X1501325Y742434D01*
X1514161Y764666D01*
X1520805Y789464D01*
Y815136D01*
X1514161Y839934D01*
X1501325Y862166D01*
X1483172Y880320D01*
X1469187Y888393D01*
Y1316807D01*
X1465694Y1334365D01*
X1455748Y1349250D01*
X1453305Y1351694D01*
Y1416800D01*
X1439187D01*
Y1461977D01*
X1446389Y1478993D01*
X1562203D01*
Y1600206D01*
X1534883D01*
Y1744272D01*
X1535105D01*
Y1936772D01*
X1513193D01*
Y1987984D01*
X1729230Y2204021D01*
X1729230Y2204021D01*
X1735861Y2213945D01*
X1738189Y2225650D01*
Y2228406D01*
X1756667Y2236059D01*
X1994194Y1998533D01*
Y1929372D01*
X1972281D01*
Y1736872D01*
X1994194D01*
Y1600206D01*
X1944946D01*
Y1478993D01*
X2060760D01*
Y1600206D01*
X2055369D01*
Y1736872D01*
X2077281D01*
Y1929372D01*
X2055369D01*
Y1968428D01*
X2059535Y1972664D01*
X2075369Y1981805D01*
X2081350Y1980615D01*
X2331484D01*
X2362727Y1949372D01*
X2354443Y1929372D01*
X2353281D01*
Y1827779D01*
X2333281Y1817089D01*
X2331281Y1818425D01*
Y1929372D01*
X2226281D01*
Y1736872D01*
X2266395D01*
X2275400Y1727867D01*
Y1600206D01*
X2230489D01*
X2220074Y1600207D01*
X2211805D01*
X2197663Y1614349D01*
Y1736872D01*
X2204281D01*
Y1929372D01*
X2099281D01*
Y1736872D01*
X2105900D01*
Y1600206D01*
X2094675D01*
Y1478993D01*
X2105900D01*
Y1416800D01*
X2060283D01*
Y1335735D01*
X2038838Y1314290D01*
X2028892Y1299405D01*
X2025400Y1281847D01*
Y899800D01*
X1973781D01*
Y704800D01*
X2168781D01*
Y899800D01*
X2117163D01*
Y1262842D01*
X2141121Y1286800D01*
X2180283D01*
Y1325962D01*
X2184224Y1329904D01*
X2194170Y1344789D01*
X2197663Y1362347D01*
Y1466167D01*
X2210489Y1478993D01*
X2230489Y1478993D01*
X2275400D01*
Y1416800D01*
X2250283D01*
Y1286800D01*
X2275400D01*
Y888393D01*
X2261415Y880320D01*
X2243262Y862166D01*
X2230426Y839934D01*
X2223781Y815136D01*
Y789464D01*
X2230426Y764666D01*
X2243262Y742434D01*
X2261415Y724281D01*
X2283648Y711445D01*
X2308445Y704800D01*
X2334118D01*
X2358915Y711445D01*
X2381148Y724281D01*
X2399301Y742434D01*
X2412137Y764666D01*
X2418781Y789464D01*
Y815136D01*
X2412137Y839934D01*
X2399301Y862166D01*
X2381148Y880320D01*
X2367163Y888393D01*
Y1286800D01*
X2370283D01*
Y1416800D01*
X2367163D01*
Y1478993D01*
X2482560D01*
Y1600206D01*
X2455241D01*
Y1736872D01*
X2458281D01*
Y1929372D01*
X2436369D01*
Y1949574D01*
X2436369Y1949575D01*
X2434041Y1961281D01*
X2427410Y1971204D01*
X2427409Y1971205D01*
X2365783Y2032832D01*
X2355859Y2039462D01*
X2344154Y2041791D01*
X2344153Y2041790D01*
X2094019D01*
X1818189Y2317621D01*
Y2568332D01*
X1975716Y2725859D01*
X1994194Y2718205D01*
Y2471772D01*
X1972281D01*
Y2279272D01*
X2077281D01*
Y2412973D01*
X2097281Y2421009D01*
X2099281Y2418922D01*
Y2279272D01*
X2105361D01*
Y2230601D01*
X2100704Y2219358D01*
Y2199467D01*
X2108316Y2181089D01*
X2122381Y2167024D01*
X2140758Y2159412D01*
X2160650D01*
X2179027Y2167024D01*
X2193092Y2181089D01*
X2200704Y2199467D01*
Y2219358D01*
X2197124Y2228000D01*
Y2279272D01*
X2204281D01*
Y2471772D01*
X2157369D01*
Y2572322D01*
X2194282D01*
Y2752321D01*
X2097877D01*
X2088797Y2772321D01*
X2096213Y2781734D01*
X2368127D01*
X2377123Y2769012D01*
X2378917Y2762384D01*
X2377522Y2760296D01*
X2375193Y2748591D01*
X2375194Y2748590D01*
Y2471772D01*
X2353281D01*
Y2279272D01*
X2458281D01*
Y2471772D01*
X2436369D01*
Y2735921D01*
X2660879Y2960431D01*
X2660879Y2960431D01*
X2667510Y2970355D01*
X2669838Y2982060D01*
X2669838Y2982061D01*
Y3611035D01*
X2669838Y3611037D01*
X2667510Y3622742D01*
X2660879Y3632666D01*
X2506716Y3786829D01*
X2496792Y3793460D01*
X2485087Y3795788D01*
X2485086Y3795788D01*
X2434453D01*
X2423398Y3815174D01*
X2423491Y3815788D01*
X2425705Y3826916D01*
X2425705Y3826917D01*
Y4059664D01*
X2423377Y4071369D01*
X2416746Y4081293D01*
X2416745Y4081293D01*
X2157910Y4340129D01*
X2147987Y4346759D01*
X2136281Y4349088D01*
X2136280Y4349088D01*
X1604457D01*
X1578588Y4374957D01*
Y4418521D01*
X1582739Y4419634D01*
X1603261Y4431482D01*
X1620018Y4448239D01*
X1631866Y4468761D01*
X1638000Y4491651D01*
Y4515349D01*
X1631866Y4538239D01*
X1623395Y4552912D01*
X1631928Y4572912D01*
X1685330D01*
X1716282Y4541960D01*
X1714133Y4538239D01*
X1708000Y4515349D01*
Y4491651D01*
X1714133Y4468761D01*
X1725982Y4448239D01*
X1742739Y4431482D01*
X1763261Y4419634D01*
X1786151Y4413500D01*
X1809849D01*
X1832739Y4419634D01*
X1853261Y4431482D01*
X1870018Y4448239D01*
X1881866Y4468761D01*
X1888000Y4491651D01*
Y4515349D01*
X1881866Y4538239D01*
X1870018Y4558761D01*
X1853261Y4575518D01*
X1832739Y4587366D01*
X1809849Y4593500D01*
X1786151D01*
X1763261Y4587366D01*
X1759540Y4585218D01*
X1719629Y4625129D01*
X1715463Y4627913D01*
X1721529Y4647912D01*
X2350122D01*
X2471565Y4526469D01*
X2481489Y4519839D01*
X2493194Y4517510D01*
X3190431D01*
X3209805Y4516000D01*
Y4376000D01*
X3404805D01*
Y4472742D01*
X3449573Y4517510D01*
X3715431D01*
X3734806Y4516000D01*
Y4376000D01*
X3929805D01*
Y4483044D01*
X3930393Y4486000D01*
X3930393Y4486001D01*
Y4515428D01*
X3932475Y4517510D01*
X3975809D01*
Y4480598D01*
X4150809D01*
Y4615598D01*
X3975809D01*
Y4578686D01*
X2505864D01*
X2474878Y4609672D01*
X2480856Y4631979D01*
X2486949Y4633611D01*
X2504051Y4643485D01*
X2518015Y4657449D01*
X2527889Y4674551D01*
X2533000Y4693626D01*
Y4713374D01*
X2527889Y4732449D01*
X2518015Y4749551D01*
X2504051Y4763515D01*
X2486949Y4773389D01*
X2467874Y4778500D01*
D02*
G37*
G36*
X2059849Y4593500D02*
X2036151D01*
X2013261Y4587366D01*
X1992739Y4575518D01*
X1975982Y4558761D01*
X1964133Y4538239D01*
X1958000Y4515349D01*
Y4491651D01*
X1964133Y4468761D01*
X1975982Y4448239D01*
X1992739Y4431482D01*
X2013261Y4419634D01*
X2036151Y4413500D01*
X2059849D01*
X2082739Y4419634D01*
X2103261Y4431482D01*
X2120018Y4448239D01*
X2131866Y4468761D01*
X2138000Y4491651D01*
Y4515349D01*
X2131866Y4538239D01*
X2120018Y4558761D01*
X2103261Y4575518D01*
X2082739Y4587366D01*
X2059849Y4593500D01*
D02*
G37*
G36*
X4524130Y4745000D02*
X4475869D01*
X4428536Y4735585D01*
X4383949Y4717116D01*
X4343821Y4690304D01*
X4309696Y4656178D01*
X4282884Y4616051D01*
X4264415Y4571464D01*
X4255000Y4524130D01*
Y4475869D01*
X4264415Y4428536D01*
X4282884Y4383949D01*
X4309696Y4343821D01*
X4343821Y4309696D01*
X4383949Y4282884D01*
X4428536Y4264415D01*
X4475869Y4255000D01*
X4524130D01*
X4571464Y4264415D01*
X4616051Y4282884D01*
X4656178Y4309696D01*
X4690304Y4343821D01*
X4717116Y4383949D01*
X4735585Y4428536D01*
X4745000Y4475869D01*
Y4524130D01*
X4735585Y4571464D01*
X4717116Y4616051D01*
X4690304Y4656178D01*
X4656178Y4690304D01*
X4616051Y4717116D01*
X4571464Y4735585D01*
X4524130Y4745000D01*
D02*
G37*
G36*
X524131D02*
X475870D01*
X428536Y4735585D01*
X383949Y4717116D01*
X343822Y4690304D01*
X309696Y4656178D01*
X282884Y4616051D01*
X264415Y4571464D01*
X255000Y4524130D01*
Y4475869D01*
X264415Y4428536D01*
X282884Y4383949D01*
X309696Y4343821D01*
X343822Y4309696D01*
X383949Y4282884D01*
X428536Y4264415D01*
X475870Y4255000D01*
X524131D01*
X571464Y4264415D01*
X616051Y4282884D01*
X656179Y4309696D01*
X690304Y4343821D01*
X717116Y4383949D01*
X735585Y4428536D01*
X745000Y4475869D01*
Y4524130D01*
X735585Y4571464D01*
X717116Y4616051D01*
X690304Y4656178D01*
X656179Y4690304D01*
X616051Y4717116D01*
X571464Y4735585D01*
X524131Y4745000D01*
D02*
G37*
G36*
X3009775Y4488500D02*
X2809775D01*
Y4298500D01*
X2863894D01*
Y4241160D01*
X2792707D01*
Y4065671D01*
X2864198D01*
X2867386Y4049642D01*
X2877332Y4034757D01*
X2892217Y4024811D01*
X2909775Y4021319D01*
X2927333Y4024811D01*
X2942218Y4034757D01*
X2952164Y4049642D01*
X2955352Y4065671D01*
X3018529D01*
Y4241160D01*
X2955657D01*
Y4298500D01*
X3009775D01*
Y4488500D01*
D02*
G37*
G36*
X4011085Y3905532D02*
X3835596D01*
Y3851203D01*
X3744312D01*
Y3865928D01*
X3638913D01*
X3628498Y3865928D01*
X3608498Y3865928D01*
X3503099D01*
Y3744715D01*
X3515125D01*
Y3563982D01*
X3421346Y3470203D01*
X3296305D01*
Y3474321D01*
X3116306D01*
Y3374322D01*
X3296305D01*
Y3378440D01*
X3646306D01*
Y3374322D01*
X3690424D01*
Y3347321D01*
X3646306D01*
Y3343203D01*
X3296305D01*
Y3347321D01*
X3116306D01*
Y3247322D01*
X3296305D01*
Y3251440D01*
X3646306D01*
Y3247322D01*
X3826305D01*
Y3256440D01*
X3889306D01*
Y3251622D01*
X4009373D01*
X4026913Y3248133D01*
X4221279D01*
X4231222Y3244015D01*
X4251113D01*
X4269490Y3251626D01*
X4283556Y3265692D01*
X4291167Y3284069D01*
Y3303960D01*
X4283556Y3322337D01*
X4269490Y3336403D01*
X4251113Y3344014D01*
X4231222D01*
X4221279Y3339896D01*
X4069305D01*
Y3386622D01*
X3889306D01*
Y3348203D01*
X3782187D01*
Y3374322D01*
X3826305D01*
Y3474321D01*
X3646306D01*
Y3470203D01*
X3577250D01*
X3569596Y3488681D01*
X3593449Y3512534D01*
X3603395Y3527419D01*
X3606888Y3544977D01*
Y3732690D01*
X3618913Y3744715D01*
X3638913Y3744715D01*
X3683297D01*
X3690424Y3736031D01*
Y3601321D01*
X3646306D01*
Y3501322D01*
X3826305D01*
Y3601321D01*
X3782187D01*
Y3717027D01*
X3815596Y3750435D01*
X3835596Y3742151D01*
Y3679711D01*
X4011085D01*
Y3905532D01*
D02*
G37*
G36*
X3018529Y3926030D02*
X2792707D01*
Y3750540D01*
X2880818D01*
Y3726539D01*
X2869018Y3714738D01*
X2861406Y3696361D01*
Y3676470D01*
X2869018Y3658093D01*
X2883083Y3644028D01*
X2901460Y3636416D01*
X2921352D01*
X2939729Y3644028D01*
X2953794Y3658093D01*
X2961406Y3676470D01*
Y3696361D01*
X2953794Y3714738D01*
X2941994Y3726539D01*
Y3750540D01*
X3018529D01*
Y3926030D01*
D02*
G37*
G36*
X3296305Y3601321D02*
X3116306D01*
Y3501322D01*
X3296305D01*
Y3601321D01*
D02*
G37*
G36*
Y3220321D02*
X3116306D01*
Y3120322D01*
X3296305D01*
Y3220321D01*
D02*
G37*
G36*
X296952Y2846712D02*
X277204D01*
X258129Y2841601D01*
X241027Y2831727D01*
X227063Y2817763D01*
X217189Y2800661D01*
X212078Y2781586D01*
Y2761838D01*
X217189Y2742763D01*
X227063Y2725661D01*
X241027Y2711697D01*
X258129Y2701823D01*
X277204Y2696712D01*
X296952D01*
X316027Y2701823D01*
X333129Y2711697D01*
X347093Y2725661D01*
X356967Y2742763D01*
X362078Y2761838D01*
Y2781586D01*
X356967Y2800661D01*
X347093Y2817763D01*
X333129Y2831727D01*
X316027Y2841601D01*
X296952Y2846712D01*
D02*
G37*
G36*
X577078Y2701712D02*
X397078D01*
Y2521712D01*
X577078D01*
Y2701712D01*
D02*
G37*
G36*
X498926Y2451712D02*
X475229D01*
X452339Y2445578D01*
X431817Y2433729D01*
X415060Y2416973D01*
X403211Y2396450D01*
X397078Y2373560D01*
Y2349863D01*
X403211Y2326973D01*
X415060Y2306451D01*
X431817Y2289694D01*
X452339Y2277845D01*
X475229Y2271712D01*
X498926D01*
X521816Y2277845D01*
X542339Y2289694D01*
X559095Y2306451D01*
X570944Y2326973D01*
X577078Y2349863D01*
Y2373560D01*
X570944Y2396450D01*
X559095Y2416973D01*
X542339Y2433729D01*
X521816Y2445578D01*
X498926Y2451712D01*
D02*
G37*
G36*
Y2201712D02*
X475229D01*
X452339Y2195578D01*
X431817Y2183729D01*
X415060Y2166973D01*
X403211Y2146450D01*
X397078Y2123560D01*
Y2099863D01*
X403211Y2076973D01*
X415060Y2056451D01*
X431817Y2039694D01*
X452339Y2027845D01*
X475229Y2021712D01*
X498926D01*
X521816Y2027845D01*
X542339Y2039694D01*
X559095Y2056451D01*
X570944Y2076973D01*
X577078Y2099863D01*
Y2123560D01*
X570944Y2146450D01*
X559095Y2166973D01*
X542339Y2183729D01*
X521816Y2195578D01*
X498926Y2201712D01*
D02*
G37*
G36*
X3826305Y3220321D02*
X3646306D01*
Y3120322D01*
X3826305D01*
Y3124440D01*
X3889306D01*
Y3055622D01*
X4069305D01*
Y3077240D01*
X4107826D01*
X4173450Y3011617D01*
Y2030208D01*
X4143070Y1999828D01*
X4141562Y1999203D01*
X4007472D01*
Y2286422D01*
X4056605D01*
Y2421422D01*
X3876606D01*
Y2286422D01*
X3915709D01*
Y2001616D01*
X3913296Y1999203D01*
X3799805D01*
Y2123322D01*
X3599806D01*
Y1809491D01*
X3581328Y1801838D01*
X3343197Y2039968D01*
X3343198Y2103321D01*
X3342805Y2105293D01*
Y2123322D01*
X3324775D01*
X3322806Y2123713D01*
X3162805Y2123714D01*
X3160835Y2123322D01*
X3142806D01*
Y2105293D01*
X3142414Y2103322D01*
Y1999203D01*
X3024300D01*
X3021887Y2001616D01*
Y2303921D01*
X3063505D01*
Y2438921D01*
X2888506D01*
Y2303921D01*
X2930124D01*
Y1982611D01*
X2933616Y1965053D01*
X2943562Y1950168D01*
X2972852Y1920878D01*
X2987737Y1910932D01*
X3005295Y1907440D01*
X3142414D01*
Y1803322D01*
X3142806Y1801350D01*
Y1783322D01*
X3160835D01*
X3162805Y1782930D01*
X3314359D01*
X3318387Y1778902D01*
X3318387Y1778902D01*
X3429959Y1667329D01*
X3422306Y1648852D01*
X3398071D01*
Y1630193D01*
X3283198D01*
Y1642218D01*
X3161985D01*
Y1526404D01*
X3283198D01*
Y1538429D01*
X3398071D01*
Y1509792D01*
X3482141D01*
X3484111Y1509400D01*
X3656831D01*
X3658801Y1509792D01*
X3676831D01*
Y1527821D01*
X3677223Y1529792D01*
Y1628852D01*
X3676831Y1630822D01*
Y1648852D01*
X3675866D01*
Y1698852D01*
X3675867Y1698853D01*
X3674314Y1706656D01*
X3669894Y1713272D01*
X3618322Y1764844D01*
X3625975Y1783322D01*
X3799805D01*
Y1907440D01*
X4141562D01*
X4151505Y1903322D01*
X4171396D01*
X4189773Y1910934D01*
X4203838Y1924999D01*
X4207957Y1934942D01*
X4251774Y1978760D01*
X4261720Y1993644D01*
X4265213Y2011203D01*
Y3030622D01*
X4261720Y3048180D01*
X4251774Y3063065D01*
X4159274Y3155565D01*
X4144389Y3165511D01*
X4126831Y3169003D01*
X4069305D01*
Y3190622D01*
X3954192D01*
X3942049Y3202765D01*
X3927164Y3212711D01*
X3909605Y3216203D01*
X3826305D01*
Y3220321D01*
D02*
G37*
G36*
X498926Y1701712D02*
X475229D01*
X452339Y1695578D01*
X431817Y1683729D01*
X415060Y1666973D01*
X403211Y1646450D01*
X397078Y1623560D01*
Y1599863D01*
X403211Y1576973D01*
X415060Y1556451D01*
X431817Y1539694D01*
X452339Y1527845D01*
X475229Y1521712D01*
X498926D01*
X521816Y1527845D01*
X542339Y1539694D01*
X559095Y1556451D01*
X570944Y1576973D01*
X577078Y1599863D01*
Y1623560D01*
X570944Y1646450D01*
X559095Y1666973D01*
X542339Y1683729D01*
X521816Y1695578D01*
X498926Y1701712D01*
D02*
G37*
G36*
X3649211Y1486684D02*
X3425691D01*
X3417887Y1485131D01*
X3411272Y1480711D01*
X3411271Y1480710D01*
X3381050Y1450489D01*
X3376630Y1443874D01*
X3375078Y1436070D01*
Y746569D01*
X3376630Y738766D01*
X3381050Y732150D01*
X3381051Y732149D01*
X3405298Y707902D01*
X3411914Y703482D01*
X3419717Y701930D01*
X3583123D01*
X3590927Y703482D01*
X3597543Y707902D01*
X3601963Y714518D01*
X3603515Y722321D01*
Y1160617D01*
X3671250Y1228352D01*
X3675671Y1234968D01*
X3677223Y1242772D01*
Y1458672D01*
X3675671Y1466475D01*
X3671250Y1473091D01*
X3671250Y1473092D01*
X3663630Y1480711D01*
X3657015Y1485131D01*
X3649211Y1486684D01*
D02*
G37*
G36*
X4524130Y745000D02*
X4475869D01*
X4428536Y735585D01*
X4383949Y717116D01*
X4343821Y690304D01*
X4309696Y656179D01*
X4282884Y616051D01*
X4264415Y571464D01*
X4255000Y524131D01*
Y475870D01*
X4264415Y428536D01*
X4282884Y383949D01*
X4309696Y343822D01*
X4343821Y309696D01*
X4383949Y282884D01*
X4428536Y264415D01*
X4475869Y255000D01*
X4524130D01*
X4571464Y264415D01*
X4616051Y282884D01*
X4656178Y309696D01*
X4690304Y343822D01*
X4717116Y383949D01*
X4735585Y428536D01*
X4745000Y475870D01*
Y524131D01*
X4735585Y571464D01*
X4717116Y616051D01*
X4690304Y656179D01*
X4656178Y690304D01*
X4616051Y717116D01*
X4571464Y735585D01*
X4524130Y745000D01*
D02*
G37*
G36*
X524131D02*
X475870D01*
X428536Y735585D01*
X383949Y717116D01*
X343822Y690304D01*
X309696Y656179D01*
X282884Y616051D01*
X264415Y571464D01*
X255000Y524131D01*
Y475870D01*
X264415Y428536D01*
X282884Y383949D01*
X309696Y343822D01*
X343822Y309696D01*
X383949Y282884D01*
X428536Y264415D01*
X475870Y255000D01*
X524131D01*
X571464Y264415D01*
X616051Y282884D01*
X656179Y309696D01*
X690304Y343822D01*
X717116Y383949D01*
X735585Y428536D01*
X745000Y475870D01*
Y524131D01*
X735585Y571464D01*
X717116Y616051D01*
X690304Y656179D01*
X656179Y690304D01*
X616051Y717116D01*
X571464Y735585D01*
X524131Y745000D01*
D02*
G37*
%LPD*%
G36*
X2381775Y3606943D02*
Y3590255D01*
X2389387Y3571878D01*
X2403452Y3557812D01*
X2421830Y3550200D01*
X2441721D01*
X2460098Y3557812D01*
X2474163Y3571878D01*
X2481775Y3590255D01*
Y3594393D01*
X2501775Y3602677D01*
X2528043Y3576409D01*
Y3415295D01*
X2509565Y3407641D01*
X2430377Y3486829D01*
X2420454Y3493460D01*
X2408749Y3495788D01*
X2408747Y3495788D01*
X2303550D01*
Y3634613D01*
X2354105D01*
X2381775Y3606943D01*
D02*
G37*
G36*
X1436586Y1980615D02*
X1452018Y1963293D01*
Y1936772D01*
X1430105D01*
Y1837332D01*
X1410105Y1826642D01*
X1408105Y1827978D01*
Y1936772D01*
X1303105D01*
Y1744272D01*
X1343219D01*
X1347424Y1740067D01*
Y1614349D01*
X1333282Y1600206D01*
X1297933Y1600207D01*
X1277932Y1600206D01*
X1249187D01*
Y1744272D01*
X1281105D01*
Y1936772D01*
X1176105D01*
Y1827219D01*
X1174105Y1824883D01*
X1156779Y1831286D01*
X1154105Y1834219D01*
Y1936772D01*
X1151508D01*
X1143224Y1956772D01*
X1167067Y1980615D01*
X1436585D01*
X1436586Y1980615D01*
D02*
G37*
G36*
X3322806Y2103321D02*
X3322805Y2031521D01*
X3655475Y1698853D01*
Y1630208D01*
X3656831Y1628852D01*
Y1529792D01*
X3484111D01*
Y1642016D01*
X3332806Y1793322D01*
X3322806Y1803322D01*
X3162805D01*
Y2103322D01*
X3322806Y2103321D01*
D02*
G37*
G36*
X3656831Y1458672D02*
Y1318972D01*
Y1242772D01*
X3583123Y1169064D01*
Y722321D01*
X3419717D01*
X3395469Y746569D01*
Y1436070D01*
X3425691Y1466292D01*
X3649211D01*
X3656831Y1458672D01*
D02*
G37*
D10*
X457483Y3292590D02*
D03*
Y3072590D02*
D03*
X627484D02*
D03*
Y3292590D02*
D03*
D11*
X3557771Y1382472D02*
D03*
D12*
X2909775Y4753500D02*
D03*
Y4393500D02*
D03*
D13*
X3222592Y1458912D02*
D03*
Y1584311D02*
D03*
D14*
X2215283Y1151800D02*
D03*
X1298305D02*
D03*
X2120283Y1351800D02*
D03*
X2310283D02*
D03*
X1203305D02*
D03*
X1393305D02*
D03*
D15*
X2550052Y1539600D02*
D03*
X1629694D02*
D03*
X1877454D02*
D03*
X945408D02*
D03*
X2277981D02*
D03*
X2152582D02*
D03*
X1504296D02*
D03*
X2002853D02*
D03*
X1355840D02*
D03*
X1230441D02*
D03*
X2424654D02*
D03*
X3561006Y3805322D02*
D03*
X1070807Y1539600D02*
D03*
X3686405Y3805322D02*
D03*
D16*
X2976005Y2521422D02*
D03*
X854199Y4169700D02*
D03*
X498484Y3565200D02*
D03*
X245554Y4180850D02*
D03*
X243951Y3565199D02*
D03*
X4063309Y4698098D02*
D03*
X2976005Y2371421D02*
D03*
X498484Y3715200D02*
D03*
X243951Y3715199D02*
D03*
X854199Y4019700D02*
D03*
X245554Y4030850D02*
D03*
X4063309Y4548098D02*
D03*
D17*
X3471305Y2662322D02*
D03*
D18*
X2278781Y2375522D02*
D03*
X1355605Y2382922D02*
D03*
X1482605D02*
D03*
X1228605D02*
D03*
X1101605D02*
D03*
Y1840522D02*
D03*
X1228605D02*
D03*
X1355605D02*
D03*
X1482605D02*
D03*
X2405781Y2375522D02*
D03*
X2151781D02*
D03*
X2024781D02*
D03*
Y1833122D02*
D03*
X2151781D02*
D03*
X2278781D02*
D03*
X2405781D02*
D03*
D19*
X2311782Y2662322D02*
D03*
X1390805Y2644322D02*
D03*
X1205805D02*
D03*
X2126782Y2662322D02*
D03*
D20*
X3966605Y2538922D02*
D03*
X3979305Y2938122D02*
D03*
Y3504122D02*
D03*
Y3319122D02*
D03*
X3966605Y2353922D02*
D03*
X3979305Y3123122D02*
D03*
D21*
X1362200Y3565200D02*
D03*
X2209800Y3465200D02*
D03*
Y3715200D02*
D03*
Y3365200D02*
D03*
X1362200Y3665200D02*
D03*
Y3615200D02*
D03*
X2209800Y3415200D02*
D03*
Y3765200D02*
D03*
Y3315200D02*
D03*
X1362200Y3465200D02*
D03*
Y3515200D02*
D03*
Y3865200D02*
D03*
Y3815200D02*
D03*
Y3765200D02*
D03*
Y3715200D02*
D03*
Y3415200D02*
D03*
Y3365200D02*
D03*
Y3315200D02*
D03*
X2209800Y3515200D02*
D03*
Y3565200D02*
D03*
Y3615200D02*
D03*
Y3665200D02*
D03*
Y3815200D02*
D03*
Y3865200D02*
D03*
D22*
X4238471Y3792622D02*
D03*
X3923340D02*
D03*
D23*
X3307305Y4766000D02*
D03*
X3832306D02*
D03*
Y4446000D02*
D03*
X3307305D02*
D03*
D24*
X849984Y3257090D02*
D03*
X257983Y3128090D02*
D03*
Y3253090D02*
D03*
X849984Y3132090D02*
D03*
D25*
X2905618Y3838285D02*
D03*
Y4153415D02*
D03*
D26*
X3636511Y1579322D02*
D03*
X3570471D02*
D03*
X3504431D02*
D03*
X3438391D02*
D03*
D27*
X1861000Y3166400D02*
D03*
X1811000D02*
D03*
X1961000D02*
D03*
X1511000D02*
D03*
X1561000D02*
D03*
X1611000D02*
D03*
X1661000D02*
D03*
X1711000D02*
D03*
X1761000D02*
D03*
X1911000D02*
D03*
X2011000D02*
D03*
X2061000D02*
D03*
Y4014000D02*
D03*
X2011000D02*
D03*
X1961000D02*
D03*
X1911000D02*
D03*
X1861000D02*
D03*
X1811000D02*
D03*
X1761000D02*
D03*
X1711000D02*
D03*
X1661000D02*
D03*
X1611000D02*
D03*
X1561000D02*
D03*
X1511000D02*
D03*
D28*
X3242806Y1953322D02*
D03*
X3699805D02*
D03*
D29*
X3206305Y3424322D02*
D03*
Y3297322D02*
D03*
X3736305D02*
D03*
Y3424322D02*
D03*
Y3170322D02*
D03*
X3206305D02*
D03*
Y3551322D02*
D03*
X3736305D02*
D03*
D30*
X626699Y4025850D02*
D03*
X481699D02*
D03*
D31*
X2911406Y3686416D02*
Y3838285D01*
X2366775Y3665200D02*
X2431775Y3600200D01*
X2209800Y3665200D02*
X2366775D01*
X1471667Y3426916D02*
Y3886910D01*
X1362200Y3415200D02*
X1459951D01*
X1471667Y3426916D01*
X1298000Y4060577D02*
X1471667Y3886910D01*
X1298000Y4060577D02*
Y4503500D01*
X3436903Y4548098D02*
X3919805D01*
X1298000Y4503500D02*
X1473000Y4678500D01*
X2362792D01*
X2493194Y4548098D01*
X3436903D01*
X1501207Y4603500D02*
X1698000D01*
X1448000Y4550293D02*
X1501207Y4603500D01*
X3899806Y4528098D02*
X3919805Y4548098D01*
X3899806Y4486000D02*
Y4528098D01*
X3859805Y4446000D02*
X3899806Y4486000D01*
X3832306Y4446000D02*
X3859805D01*
X3919805Y4548098D02*
X4063309D01*
X3307305Y4446000D02*
X3334805D01*
X3436903Y4548098D01*
X1053879Y3665200D02*
X1103879Y3615200D01*
X1362200D01*
X1053879Y3665200D02*
X1362200D01*
X938879Y3780200D02*
X1053879Y3665200D01*
X678484Y3780200D02*
X938879D01*
X1587149Y2388519D02*
Y2438626D01*
X1521975Y2503800D02*
X1587149Y2438626D01*
X1521975Y2503800D02*
Y2613975D01*
X1587149Y2388519D02*
X1592746Y2382922D01*
X1481975Y2644597D02*
X1861000Y3023622D01*
X1481975Y2478160D02*
Y2644597D01*
X1521975Y2613975D02*
X1961000Y3053000D01*
X1482605Y2382922D02*
Y2477530D01*
X1481975Y2478160D02*
X1482605Y2477530D01*
X1961000Y3053000D02*
Y3166400D01*
X1861000Y3023622D02*
Y3166400D01*
X1214295Y2912383D02*
X1690793D01*
X1811000Y3032590D02*
Y3166400D01*
X1690793Y2912383D02*
X1811000Y3032590D01*
X1597497Y2521422D02*
X1618000Y2554320D01*
Y2643497D01*
X2011000Y3036497D01*
Y3166400D01*
X1787601Y2304951D02*
Y2581002D01*
X1667602Y2242219D02*
Y2630707D01*
X2042353Y2892322D02*
X2262218D01*
X2025785Y2932322D02*
X2245650D01*
X2058922Y2852322D02*
X2280554D01*
X1667602Y2630707D02*
X2009216Y2972322D01*
X1747602Y2597570D02*
X2042353Y2892322D01*
X1707602Y2614139D02*
X2025785Y2932322D01*
X1707602Y2225650D02*
Y2614139D01*
X2009216Y2972322D02*
X2229081D01*
X1747602Y2288383D02*
Y2597570D01*
X1787601Y2581002D02*
X2058922Y2852322D01*
X2024781Y2757821D02*
X2079282Y2812322D01*
X2373678D01*
X2024781Y2375522D02*
Y2757821D01*
X1154397Y2011203D02*
X1436586D01*
X1667602Y2242219D01*
X1482605Y1840522D02*
Y2000654D01*
X1707602Y2225650D01*
X1101605Y1840522D02*
Y1958411D01*
X1154397Y2011203D01*
X1101605Y1673702D02*
Y1840522D01*
X2373678Y2812322D02*
X2558631Y2997275D01*
X2280554Y2852322D02*
X2510397Y3082165D01*
X2245650Y2932322D02*
X2416340Y3103012D01*
X2229081Y2972322D02*
X2368589Y3111829D01*
X2262218Y2892322D02*
X2460716Y3090819D01*
X498484Y3715200D02*
X613484D01*
X678484Y3780200D01*
X1698000Y4603500D02*
X1798000Y4503500D01*
X1448000Y4326512D02*
Y4550293D01*
Y4326512D02*
X1516011Y4258500D01*
X2119282D01*
X2341095Y4036686D01*
Y3876916D02*
Y4036686D01*
X2329379Y3865200D02*
X2341095Y3876916D01*
X2209800Y3865200D02*
X2329379D01*
X2383402Y3815200D02*
X2395117Y3826916D01*
X2209800Y3815200D02*
X2383402D01*
X2395117Y3826916D02*
Y4059664D01*
X2136281Y4318500D02*
X2395117Y4059664D01*
X1548000Y4362287D02*
Y4503500D01*
Y4362287D02*
X1591787Y4318500D01*
X2136281D01*
X1747602Y2288383D02*
X2024781Y2011203D01*
X1787601Y2304951D02*
X2081350Y2011203D01*
X2639250Y2982060D02*
Y3611037D01*
X2405781Y2375522D02*
Y2748591D01*
X2639250Y2982060D01*
X2485087Y3765200D02*
X2639250Y3611037D01*
X2209800Y3765200D02*
X2485087D01*
X2558631Y2997275D02*
Y3589079D01*
X2432509Y3715200D02*
X2558631Y3589079D01*
X2209800Y3715200D02*
X2432509D01*
X2416340Y3103012D02*
Y3308827D01*
X2460716Y3090819D02*
Y3326450D01*
X2510397Y3082165D02*
Y3363552D01*
X2368589Y3111829D02*
Y3300010D01*
X2344154Y2011203D02*
X2405781Y1949575D01*
X2081350Y2011203D02*
X2344154D01*
X2405781Y1833122D02*
Y1949575D01*
X2408749Y3465200D02*
X2510397Y3363552D01*
X2209800Y3465200D02*
X2408749D01*
X2371965Y3415200D02*
X2460716Y3326450D01*
X2209800Y3415200D02*
X2371965D01*
X2024781Y1833122D02*
Y2011203D01*
X2359967Y3365200D02*
X2416340Y3308827D01*
X2209800Y3365200D02*
X2359967D01*
X2209800Y3315200D02*
X2353398D01*
X2368589Y3300010D01*
X2151781Y2375522D02*
Y2419272D01*
X2126782Y2444272D02*
Y2662322D01*
Y2444272D02*
X2151781Y2419272D01*
X2405781Y1833122D02*
X2424654Y1814250D01*
Y1564322D02*
Y1814250D01*
X2024781Y1586251D02*
Y1833122D01*
X2002853Y1564322D02*
X2024781Y1586251D01*
X1482605Y1840522D02*
X1504296Y1818832D01*
Y1545223D02*
Y1818832D01*
X1098714Y1670811D02*
X1101605Y1673702D01*
X1098714Y1567541D02*
Y1670811D01*
X1070807Y1539634D02*
X1098714Y1567541D01*
X1120290Y2401607D02*
Y2818378D01*
X1214295Y2912383D01*
X1101605Y2382922D02*
X1120290Y2401607D01*
X2278781Y2375522D02*
Y2419272D01*
X2311782Y2452272D01*
Y2662322D01*
X1355605Y2382922D02*
Y2426672D01*
X1390805Y2461872D01*
Y2644322D01*
X1228605Y2382922D02*
Y2426672D01*
X1205805Y2449472D02*
X1228605Y2426672D01*
X1205805Y2449472D02*
Y2644322D01*
X732092Y3515200D02*
X1362200D01*
X634482Y3417590D02*
X732092Y3515200D01*
X844984Y3132090D02*
X849984D01*
X870176Y3114950D02*
X910768D01*
X972627Y3176809D02*
Y3307330D01*
X868650Y3113424D02*
X870176Y3114950D01*
X910768D02*
X972627Y3176809D01*
X849984Y3132090D02*
X868650Y3113424D01*
X972627Y3307330D02*
X1130498Y3465200D01*
X1312200D02*
X1362200D01*
X1130498D02*
X1312200D01*
X943256Y4019700D02*
X1147755Y3815200D01*
X854199Y4019700D02*
X943256D01*
X1147755Y3815200D02*
X1362200D01*
X481699Y4016850D02*
Y4025850D01*
Y3964356D02*
Y4016850D01*
X490699Y3964356D02*
Y4016850D01*
X481699Y3964356D02*
X560205Y3885850D01*
X481699Y4025850D02*
X490699Y4016850D01*
X476699Y4030850D02*
X481699Y4025850D01*
X245554Y4030850D02*
X476699D01*
X1109227Y3765200D02*
X1393463D01*
X560205Y3885850D02*
X988577D01*
X1109227Y3765200D01*
X243953Y3715200D02*
X498484D01*
X813529Y3100636D02*
X844984Y3132090D01*
X627484Y3072590D02*
X655530Y3100636D01*
X813529D01*
X469199Y3417590D02*
X634482D01*
X457483Y3292590D02*
Y3405875D01*
X469199Y3417590D01*
X417983Y3253090D02*
X457483Y3292590D01*
X257983Y3253090D02*
X417983D01*
X243951Y3715199D02*
X243953Y3715200D01*
X848049Y4025850D02*
X854199Y4019700D01*
X626699Y4025850D02*
X848049D01*
D32*
X2909775Y4067200D02*
Y4393500D01*
X1228605Y2382922D02*
X1229277Y2382251D01*
Y2212559D02*
Y2382251D01*
Y2212559D02*
X1229948Y2211888D01*
X2151243Y2374984D02*
X2151781Y2375522D01*
X2151243Y2209951D02*
Y2374984D01*
X2150704Y2209412D02*
X2151243Y2209951D01*
X3979305Y3319122D02*
X4001806D01*
X4026913Y3294014D01*
X4241168D01*
X3242805Y1953321D02*
X3242806Y1953322D01*
X2976005Y1982611D02*
Y2371421D01*
Y1982611D02*
X3005295Y1953321D01*
X3242805D01*
X2278781Y1789372D02*
Y1833122D01*
Y1789372D02*
X2321281Y1746872D01*
Y802321D02*
Y1746872D01*
X2151781Y1362347D02*
Y1833122D01*
X2071281Y1281847D02*
X2151781Y1362347D01*
X2071281Y802321D02*
Y1281847D01*
X1355605Y1796772D02*
Y1840522D01*
Y1796772D02*
X1393305Y1759072D01*
Y1351807D02*
Y1759072D01*
X1228605Y1796772D02*
Y1840522D01*
X1203305Y1771472D02*
X1228605Y1796772D01*
X1203305Y1351807D02*
Y1771472D01*
Y1346807D02*
Y1351807D01*
X1173305Y1316807D02*
X1203305Y1346807D01*
X1173305Y802321D02*
Y1316807D01*
X1393305Y1346807D02*
X1423305Y1316807D01*
Y802321D02*
Y1316807D01*
X3956805Y3123122D02*
X3979305D01*
X3909605Y3170322D02*
X3956805Y3123122D01*
X3736305Y3170322D02*
X3909605D01*
X3932301Y1953322D02*
X4161450D01*
X3440350Y3424322D02*
X3561006Y3544977D01*
Y3805322D01*
X3440350Y3424322D02*
X3736305D01*
X3206305D02*
X3440350D01*
X3206305Y3297322D02*
X3736305D01*
Y3424322D01*
X3962505Y3302322D02*
X3979305Y3319122D01*
X3741305Y3302322D02*
X3962505D01*
X3736305Y3297322D02*
X3741305Y3302322D01*
X3736305Y3736032D02*
X3805595Y3805322D01*
X3736305Y3551322D02*
Y3736032D01*
X3805595Y3805322D02*
X3910640D01*
X3923340Y3792622D01*
X3686405Y3805322D02*
X3805595D01*
X3979305Y3123122D02*
X4126831D01*
X4219331Y3030622D01*
Y2011203D02*
Y3030622D01*
X4161450Y1953322D02*
X4219331Y2011203D01*
X3699805Y1953322D02*
X3932301D01*
X3961591Y2348907D02*
X3966605Y2353922D01*
X3961591Y1982611D02*
Y2348907D01*
X3932301Y1953322D02*
X3961591Y1982611D01*
X3438391Y1579322D02*
Y1579631D01*
X3433711Y1584311D02*
X3438391Y1579631D01*
X3222592Y1584311D02*
X3433711D01*
D33*
X3557771Y1368705D02*
Y1382472D01*
X3493555Y1304489D02*
X3557771Y1368705D01*
X3493555Y799821D02*
Y1304489D01*
D34*
X2911406Y3686416D02*
D03*
X2431775Y3600200D02*
D03*
X4161450Y1953322D02*
D03*
X1592746Y2382922D02*
D03*
X1597497Y2521422D02*
D03*
X2150704Y2209412D02*
D03*
X1229948Y2211888D02*
D03*
X4241168Y3294014D02*
D03*
X678484Y3780200D02*
D03*
X4799999Y4499999D02*
D03*
Y3899999D02*
D03*
Y3299999D02*
D03*
Y2699999D02*
D03*
Y2099999D02*
D03*
Y1500000D02*
D03*
Y900000D02*
D03*
X4649999Y4199999D02*
D03*
X4499999Y3899999D02*
D03*
X4649999Y3599999D02*
D03*
X4499999Y3299999D02*
D03*
X4649999Y2999999D02*
D03*
X4499999Y2699999D02*
D03*
X4649999Y2399999D02*
D03*
X4499999Y2099999D02*
D03*
X4649999Y1799999D02*
D03*
X4499999Y1500000D02*
D03*
X4649999Y1200000D02*
D03*
X4499999Y900000D02*
D03*
X4349999Y4799999D02*
D03*
X4199999Y4499999D02*
D03*
X4349999Y4199999D02*
D03*
Y3599999D02*
D03*
Y2999999D02*
D03*
Y2399999D02*
D03*
Y1799999D02*
D03*
X4199999Y1500000D02*
D03*
X4349999Y1200000D02*
D03*
X4199999Y900000D02*
D03*
Y300000D02*
D03*
X4049999Y4799999D02*
D03*
Y4199999D02*
D03*
Y3599999D02*
D03*
X3899999Y2699999D02*
D03*
X4049999Y1799999D02*
D03*
X3899999Y1500000D02*
D03*
X4049999Y1200000D02*
D03*
X3899999Y900000D02*
D03*
X4049999Y600000D02*
D03*
X3899999Y300000D02*
D03*
X3599999Y3899999D02*
D03*
X3749999Y1200000D02*
D03*
Y600000D02*
D03*
X3599999Y300000D02*
D03*
X3449999Y4799999D02*
D03*
Y4199999D02*
D03*
X3299999Y3899999D02*
D03*
X3449999Y3599999D02*
D03*
Y600000D02*
D03*
X3299999Y300000D02*
D03*
X3149999Y4799999D02*
D03*
Y4199999D02*
D03*
X2999999Y3899999D02*
D03*
Y3299999D02*
D03*
Y2699999D02*
D03*
Y1500000D02*
D03*
X3149999Y1200000D02*
D03*
X2999999Y900000D02*
D03*
X3149999Y600000D02*
D03*
X2999999Y300000D02*
D03*
X2699999Y3899999D02*
D03*
Y3299999D02*
D03*
X2849999Y2999999D02*
D03*
X2699999Y2699999D02*
D03*
X2849999Y2399999D02*
D03*
Y1799999D02*
D03*
X2699999Y1500000D02*
D03*
X2849999Y1200000D02*
D03*
X2699999Y900000D02*
D03*
X2849999Y600000D02*
D03*
X2699999Y300000D02*
D03*
X2549999Y4799999D02*
D03*
Y4199999D02*
D03*
Y2399999D02*
D03*
Y1799999D02*
D03*
Y1200000D02*
D03*
Y600000D02*
D03*
X2399999Y300000D02*
D03*
X2249999Y4799999D02*
D03*
Y600000D02*
D03*
X2099999Y300000D02*
D03*
X1949999Y4799999D02*
D03*
Y3599999D02*
D03*
X1799999Y3299999D02*
D03*
Y1500000D02*
D03*
X1949999Y1200000D02*
D03*
X1799999Y900000D02*
D03*
X1949999Y600000D02*
D03*
X1799999Y300000D02*
D03*
X1649999Y4799999D02*
D03*
Y3599999D02*
D03*
X1500000Y3299999D02*
D03*
X1649999Y2999999D02*
D03*
Y1799999D02*
D03*
Y1200000D02*
D03*
Y600000D02*
D03*
X1500000Y300000D02*
D03*
X1350000Y4799999D02*
D03*
X1200000Y3899999D02*
D03*
Y3299999D02*
D03*
X1350000Y2999999D02*
D03*
Y600000D02*
D03*
X1200000Y300000D02*
D03*
X1050000Y4799999D02*
D03*
X900000Y4499999D02*
D03*
X1050000Y4199999D02*
D03*
Y2999999D02*
D03*
X900000Y2699999D02*
D03*
X1050000Y1200000D02*
D03*
X900000Y900000D02*
D03*
X1050000Y600000D02*
D03*
X900000Y300000D02*
D03*
X750000Y4799999D02*
D03*
Y3599999D02*
D03*
Y2999999D02*
D03*
Y1799999D02*
D03*
X600000Y1500000D02*
D03*
X750000Y1200000D02*
D03*
X600000Y900000D02*
D03*
X450000Y4799999D02*
D03*
Y4199999D02*
D03*
X300000Y3899999D02*
D03*
Y2099999D02*
D03*
Y1500000D02*
D03*
X450000Y1200000D02*
D03*
X300000Y900000D02*
D03*
Y300000D02*
D03*
D35*
X3243555Y799821D02*
D03*
X2071281Y802300D02*
D03*
X1173305D02*
D03*
D36*
X3493555Y799821D02*
D03*
X2321281Y802300D02*
D03*
X1423305D02*
D03*
D37*
X2298000Y4503500D02*
D03*
D38*
X487078Y1861712D02*
D03*
X1298000Y4503500D02*
D03*
X1548000D02*
D03*
X1798000D02*
D03*
X2048000D02*
D03*
X487078Y2361712D02*
D03*
Y2111712D02*
D03*
Y1611712D02*
D03*
D39*
X2458000Y4703500D02*
D03*
X287078Y2771712D02*
D03*
D40*
X487078Y2611712D02*
D03*
D41*
X4500000Y4500000D02*
D03*
X500000Y500000D02*
D03*
X4500000D02*
D03*
X500000Y4500000D02*
D03*
%TF.MD5,74388d45b79245b34659215b39556060*%
M02*
