%TF.GenerationSoftware,Altium Limited,Altium Designer,25.6.2 (33)*%
G04 Layer_Color=8388736*
%FSLAX45Y45*%
%MOMM*%
%TF.SameCoordinates,15D36C4B-3844-4F14-8141-44B8E1ADB722*%
%TF.FilePolarity,Negative*%
%TF.FileFunction,Soldermask,Top*%
%TF.Part,Single*%
G01*
G75*
%TA.AperFunction,SMDPad,CuDef*%
%ADD10R,1.20000X1.40000*%
%ADD11C,1.50876*%
%ADD12R,1.60000X1.50000*%
%ADD13R,0.81213X0.75814*%
%ADD15R,0.75814X0.81213*%
%ADD16R,1.35000X0.95000*%
%ADD17R,5.80000X6.20000*%
%ADD19R,0.95000X1.40000*%
%ADD20R,1.40000X0.95000*%
%ADD22R,1.35490X1.85822*%
%ADD23R,1.55000X1.00000*%
%ADD25R,1.85822X1.35490*%
%ADD26R,0.40640X0.99060*%
%ADD28R,1.60000X3.00000*%
%ADD29R,1.40000X0.60000*%
%ADD30R,0.75000X1.40000*%
%TA.AperFunction,ComponentPad*%
%ADD35R,1.55000X1.55000*%
%ADD36C,1.55000*%
%ADD37R,1.40000X1.40000*%
%ADD38C,1.40000*%
%ADD39C,1.10000*%
%ADD40R,1.40000X1.40000*%
%TA.AperFunction,SMDPad,CuDef*%
%ADD47R,1.00320X1.10320*%
%ADD48R,0.85320X1.72820*%
%ADD49R,1.67820X0.50320*%
%ADD50R,1.05320X0.95320*%
%ADD51R,0.50320X1.67820*%
%TA.AperFunction,ViaPad*%
%ADD52C,0.80320*%
%ADD53C,4.70320*%
G36*
X3649211Y1318972D02*
X3656831D01*
Y1242772D01*
X3616191D01*
Y1293572D01*
X3590791D01*
Y1242772D01*
X3550151D01*
Y1293572D01*
X3524751D01*
Y1242772D01*
X3484111D01*
Y1293572D01*
X3458711D01*
Y1242772D01*
X3418071D01*
Y1318972D01*
X3425691D01*
Y1466292D01*
X3649211D01*
Y1318972D01*
D02*
G37*
D10*
X457483Y3292590D02*
D03*
Y3072590D02*
D03*
X627484D02*
D03*
Y3292590D02*
D03*
D11*
X3557771Y1382472D02*
D03*
D12*
X2909775Y4753500D02*
D03*
Y4393500D02*
D03*
D13*
X3222592Y1458912D02*
D03*
Y1584311D02*
D03*
D15*
X2550052Y1539600D02*
D03*
X1629694D02*
D03*
X1877454D02*
D03*
X945408D02*
D03*
X2277981D02*
D03*
X2152582D02*
D03*
X1504296D02*
D03*
X2002853D02*
D03*
X1355840D02*
D03*
X1230441D02*
D03*
X2424654D02*
D03*
X3561006Y3805322D02*
D03*
X1070807Y1539600D02*
D03*
X3686405Y3805322D02*
D03*
D16*
X2976005Y2521422D02*
D03*
X854199Y4169700D02*
D03*
X498484Y3565200D02*
D03*
X245554Y4180850D02*
D03*
X243951Y3565199D02*
D03*
X4063309Y4698098D02*
D03*
X2976005Y2371421D02*
D03*
X498484Y3715200D02*
D03*
X243951Y3715199D02*
D03*
X854199Y4019700D02*
D03*
X245554Y4030850D02*
D03*
X4063309Y4548098D02*
D03*
D17*
X3471305Y2662322D02*
D03*
D19*
X2311782D02*
D03*
X1390805Y2644322D02*
D03*
X1205805D02*
D03*
X2126782Y2662322D02*
D03*
D20*
X3966605Y2538922D02*
D03*
X3979305Y2938122D02*
D03*
Y3504122D02*
D03*
Y3319122D02*
D03*
X3966605Y2353922D02*
D03*
X3979305Y3123122D02*
D03*
D22*
X4238471Y3792622D02*
D03*
X3923340D02*
D03*
D23*
X3307305Y4766000D02*
D03*
X3832306D02*
D03*
Y4446000D02*
D03*
X3307305D02*
D03*
D25*
X2905618Y3838285D02*
D03*
Y4153415D02*
D03*
D26*
X3636511Y1579322D02*
D03*
X3570471D02*
D03*
X3504431D02*
D03*
X3438391D02*
D03*
D28*
X3242806Y1953322D02*
D03*
X3699805D02*
D03*
D29*
X3206305Y3424322D02*
D03*
Y3297322D02*
D03*
X3736305D02*
D03*
Y3424322D02*
D03*
Y3170322D02*
D03*
X3206305D02*
D03*
Y3551322D02*
D03*
X3736305D02*
D03*
D30*
X626699Y4025850D02*
D03*
X481699D02*
D03*
D35*
X3243555Y799821D02*
D03*
X2071281Y802300D02*
D03*
X1173305D02*
D03*
D36*
X3493555Y799821D02*
D03*
X2321281Y802300D02*
D03*
X1423305D02*
D03*
D37*
X2298000Y4503500D02*
D03*
D38*
X487078Y1861712D02*
D03*
X1298000Y4503500D02*
D03*
X1548000D02*
D03*
X1798000D02*
D03*
X2048000D02*
D03*
X487078Y2361712D02*
D03*
Y2111712D02*
D03*
Y1611712D02*
D03*
D39*
X2458000Y4703500D02*
D03*
X287078Y2771712D02*
D03*
D40*
X487078Y2611712D02*
D03*
D47*
X2215283Y1151800D02*
D03*
X1298305D02*
D03*
X2120283Y1351800D02*
D03*
X2310283D02*
D03*
X1203305D02*
D03*
X1393305D02*
D03*
D48*
X2278781Y2375522D02*
D03*
X1355605Y2382922D02*
D03*
X1482605D02*
D03*
X1228605D02*
D03*
X1101605D02*
D03*
Y1840522D02*
D03*
X1228605D02*
D03*
X1355605D02*
D03*
X1482605D02*
D03*
X2405781Y2375522D02*
D03*
X2151781D02*
D03*
X2024781D02*
D03*
Y1833122D02*
D03*
X2151781D02*
D03*
X2278781D02*
D03*
X2405781D02*
D03*
D49*
X1362200Y3565200D02*
D03*
X2209800Y3465200D02*
D03*
Y3715200D02*
D03*
Y3365200D02*
D03*
X1362200Y3665200D02*
D03*
Y3615200D02*
D03*
X2209800Y3415200D02*
D03*
Y3765200D02*
D03*
Y3315200D02*
D03*
X1362200Y3465200D02*
D03*
Y3515200D02*
D03*
Y3865200D02*
D03*
Y3815200D02*
D03*
Y3765200D02*
D03*
Y3715200D02*
D03*
Y3415200D02*
D03*
Y3365200D02*
D03*
Y3315200D02*
D03*
X2209800Y3515200D02*
D03*
Y3565200D02*
D03*
Y3615200D02*
D03*
Y3665200D02*
D03*
Y3815200D02*
D03*
Y3865200D02*
D03*
D50*
X849984Y3257090D02*
D03*
X257983Y3128090D02*
D03*
Y3253090D02*
D03*
X849984Y3132090D02*
D03*
D51*
X1861000Y3166400D02*
D03*
X1811000D02*
D03*
X1961000D02*
D03*
X1511000D02*
D03*
X1561000D02*
D03*
X1611000D02*
D03*
X1661000D02*
D03*
X1711000D02*
D03*
X1761000D02*
D03*
X1911000D02*
D03*
X2011000D02*
D03*
X2061000D02*
D03*
Y4014000D02*
D03*
X2011000D02*
D03*
X1961000D02*
D03*
X1911000D02*
D03*
X1861000D02*
D03*
X1811000D02*
D03*
X1761000D02*
D03*
X1711000D02*
D03*
X1661000D02*
D03*
X1611000D02*
D03*
X1561000D02*
D03*
X1511000D02*
D03*
D52*
X4161450Y1953322D02*
D03*
X2150704Y2209412D02*
D03*
X1229948Y2211888D02*
D03*
X4241168Y3294014D02*
D03*
X678484Y3780200D02*
D03*
D53*
X4500000Y4500000D02*
D03*
X500000Y500000D02*
D03*
X4500000D02*
D03*
X500000Y4500000D02*
D03*
%TF.MD5,f53df6a0b098b94ffe93029b787a384c*%
M02*
