%TF.GenerationSoftware,Altium Limited,Altium Designer,25.6.2 (33)*%
G04 Layer_Color=65535*
%FSLAX45Y45*%
%MOMM*%
%TF.SameCoordinates,85BC1294-957B-4AEE-BC4A-C6642BEA407B*%
%TF.FilePolarity,Positive*%
%TF.FileFunction,Legend,Top*%
%TF.Part,Single*%
G01*
G75*
%TA.AperFunction,NonConductor*%
%ADD42C,0.25000*%
%ADD43C,0.20000*%
%ADD44C,0.25400*%
%ADD45C,0.15400*%
%ADD46C,0.10000*%
G36*
X4895994Y3769084D02*
X4895682Y1293396D01*
X4446266Y1293708D01*
Y2486735D01*
X4446579Y3769396D01*
X4895994Y3769084D01*
D02*
G37*
%LPC*%
G36*
X4855706Y3762525D02*
X4470939Y3761901D01*
X4468753Y3759714D01*
Y3689132D01*
X4469378Y3664147D01*
X4470314Y3663210D01*
X4475311Y3661961D01*
X4483431Y3662586D01*
X4604920Y3662273D01*
X4611479Y3662586D01*
X4613665Y3661024D01*
X4614290Y3657901D01*
X4612416Y3654778D01*
X4611479Y3653841D01*
X4610230Y3653216D01*
X4606794Y3650405D01*
X4605857Y3649469D01*
X4602734Y3648219D01*
X4600860Y3647595D01*
X4598049Y3645409D01*
X4597737Y3644472D01*
X4596488Y3643847D01*
X4589930Y3640412D01*
X4589305Y3639162D01*
X4587743Y3637601D01*
X4584620Y3636352D01*
X4582122Y3635727D01*
X4577749Y3631354D01*
X4573689Y3629793D01*
X4571503Y3628232D01*
X4568380Y3625108D01*
X4564320Y3624171D01*
X4562134Y3622610D01*
X4560572Y3620424D01*
X4559635Y3619487D01*
X4554638Y3617613D01*
X4551828Y3615427D01*
X4551203Y3614177D01*
X4547768Y3612616D01*
X4545269Y3611991D01*
X4540897Y3607619D01*
X4537773Y3606370D01*
X4534651Y3604496D01*
X4532152Y3601997D01*
X4525906Y3599499D01*
X4521534Y3595126D01*
X4516537Y3593253D01*
X4512789Y3589505D01*
X4507792Y3587631D01*
X4503419Y3583259D01*
X4500921Y3582634D01*
X4497798Y3581385D01*
X4493426Y3577012D01*
X4489990Y3576076D01*
X4487804Y3574514D01*
X4486242Y3572328D01*
X4485305Y3571391D01*
X4481245Y3570454D01*
X4478122Y3568580D01*
X4477498Y3567331D01*
X4475311Y3565145D01*
X4472813Y3564520D01*
X4470002Y3562334D01*
X4468753Y3557337D01*
X4469378Y3441782D01*
X4470314Y3440845D01*
X4475311Y3441470D01*
X4476248Y3442407D01*
X4476873Y3443656D01*
X4479684Y3446467D01*
X4480933Y3447091D01*
X4485305Y3450214D01*
X4486555Y3451464D01*
X4492176Y3454587D01*
X4493113Y3455524D01*
X4493738Y3456773D01*
X4494675Y3457710D01*
X4499047Y3460208D01*
X4503419Y3464581D01*
X4506542Y3466455D01*
X4509041Y3468953D01*
X4510290Y3469578D01*
X4515600Y3472388D01*
X4516224Y3473638D01*
X4518410Y3475824D01*
X4522783Y3478322D01*
X4527155Y3482695D01*
X4530278Y3484569D01*
X4532777Y3487067D01*
X4534026Y3487692D01*
X4538398Y3490190D01*
X4541521Y3493313D01*
X4545894Y3495812D01*
X4547455Y3497373D01*
X4548080Y3498622D01*
X4549641Y3500184D01*
X4552765Y3501433D01*
X4557137Y3505806D01*
X4561509Y3508304D01*
X4564945Y3511115D01*
X4565882Y3512052D01*
X4568380Y3512676D01*
X4571191Y3515487D01*
X4571816Y3516736D01*
X4572752Y3517673D01*
X4577125Y3520172D01*
X4580872Y3523920D01*
X4585245Y3526418D01*
X4588368Y3529541D01*
X4592428Y3531103D01*
X4595551Y3534226D01*
X4595863Y3535163D01*
X4597113Y3535787D01*
X4601485Y3538911D01*
X4604608Y3542034D01*
X4607731Y3543908D01*
X4610854Y3547031D01*
X4612104Y3547655D01*
X4617725Y3550778D01*
X4620848Y3553901D01*
X4625221Y3556400D01*
X4629593Y3558274D01*
X4632404Y3556712D01*
X4633028Y3552340D01*
X4633653Y3546718D01*
X4636152Y3542346D01*
X4638025Y3539223D01*
X4638650Y3536724D01*
X4639275Y3532352D01*
X4641148Y3529229D01*
X4643647Y3526731D01*
X4644896Y3523607D01*
X4645833Y3520172D01*
X4650518Y3515487D01*
X4652392Y3512364D01*
X4656764Y3507992D01*
X4657389Y3506743D01*
X4662698Y3501433D01*
X4663947Y3500809D01*
X4667383Y3497998D01*
X4668632Y3496749D01*
X4668944Y3495812D01*
X4670193Y3495187D01*
X4674566Y3492688D01*
X4675503Y3491752D01*
X4676127Y3490502D01*
X4677064Y3489566D01*
X4681437Y3488316D01*
X4684560Y3487692D01*
X4687683Y3484569D01*
X4690806Y3483319D01*
X4695803Y3482070D01*
X4698926Y3480821D01*
X4703298Y3478947D01*
X4706421Y3477698D01*
X4710482Y3476761D01*
X4722662Y3475824D01*
X4724535Y3475199D01*
X4743899Y3473950D01*
X4745773Y3474574D01*
X4757640Y3475199D01*
X4759514Y3475824D01*
X4762013Y3476448D01*
X4773880Y3477073D01*
X4785124Y3482070D01*
X4789496Y3482695D01*
X4792931Y3483632D01*
X4795742Y3486442D01*
X4796992Y3487067D01*
X4800115Y3488316D01*
X4803862Y3488941D01*
X4806049Y3490502D01*
X4806673Y3491752D01*
X4808235Y3493313D01*
X4812607Y3495187D01*
X4813856Y3495812D01*
X4815418Y3496749D01*
X4816042Y3497998D01*
X4816979Y3498935D01*
X4822601Y3502058D01*
X4825100Y3505806D01*
X4826349Y3506430D01*
X4829784Y3509241D01*
X4831346Y3511427D01*
X4832595Y3512052D01*
X4834156Y3513613D01*
X4834781Y3514863D01*
X4837592Y3518923D01*
X4838841Y3519547D01*
X4840403Y3521109D01*
X4842589Y3527043D01*
X4844463Y3528917D01*
X4845712Y3529541D01*
X4847274Y3533601D01*
X4847898Y3537349D01*
X4850709Y3540784D01*
X4852270Y3542346D01*
X4852895Y3544845D01*
X4853520Y3551715D01*
X4856643Y3558586D01*
X4857892Y3561709D01*
X4858829Y3565769D01*
X4859454Y3575763D01*
X4860078Y3578262D01*
X4860703Y3582009D01*
X4861328Y3590129D01*
X4861952Y3755654D01*
X4862265Y3759090D01*
X4860078Y3761901D01*
X4855706Y3762525D01*
D02*
G37*
G36*
X4643959Y3388377D02*
X4642085Y3387752D01*
X4636152Y3386815D01*
X4633028Y3386191D01*
X4629593Y3385254D01*
X4625221Y3384629D01*
X4612728Y3384004D01*
X4610854Y3383380D01*
X4604296Y3381818D01*
X4597737Y3379007D01*
X4590866Y3378383D01*
X4585869Y3375260D01*
X4581497Y3373386D01*
X4578999Y3372761D01*
X4573065Y3371824D01*
X4569317Y3369326D01*
X4567755Y3367764D01*
X4560572Y3366203D01*
X4558386Y3364641D01*
X4555888Y3362143D01*
X4552765Y3360893D01*
X4550266Y3360269D01*
X4546831Y3357458D01*
X4545269Y3355897D01*
X4540897Y3354647D01*
X4537773Y3352773D01*
X4534651Y3349650D01*
X4528717Y3347464D01*
X4527780Y3346527D01*
X4526843Y3346215D01*
X4526218Y3344966D01*
X4525281Y3344029D01*
X4524032Y3343404D01*
X4519972Y3340593D01*
X4519347Y3339344D01*
X4517161Y3337158D01*
X4514038Y3335284D01*
X4512476Y3333098D01*
X4511540Y3331536D01*
X4508416Y3329662D01*
X4503419Y3324665D01*
X4502170Y3324041D01*
X4494362Y3316233D01*
X4493738Y3314984D01*
X4489365Y3310611D01*
X4488741Y3308113D01*
X4484368Y3303741D01*
X4481245Y3298119D01*
X4478122Y3294996D01*
X4475624Y3290624D01*
X4471876Y3288125D01*
X4471564Y3286563D01*
X4473125Y3284377D01*
X4476248Y3283128D01*
X4478435Y3281566D01*
X4479684Y3280317D01*
X4482807Y3279068D01*
X4485305Y3278443D01*
X4488741Y3275633D01*
X4490302Y3274071D01*
X4493426Y3272822D01*
X4497173Y3272197D01*
X4501545Y3267825D01*
X4505918Y3266576D01*
X4509978Y3265014D01*
X4512164Y3262203D01*
X4515287Y3260954D01*
X4518723Y3260017D01*
X4521846Y3258143D01*
X4522471Y3256894D01*
X4523407Y3255957D01*
X4527780Y3254708D01*
X4532152Y3252209D01*
X4534651Y3249711D01*
X4537149Y3249086D01*
X4541209Y3247525D01*
X4544644Y3244089D01*
X4549017Y3242840D01*
X4552140Y3241591D01*
X4555888Y3237843D01*
X4560260Y3236594D01*
X4563383Y3235345D01*
X4567131Y3231597D01*
X4572128Y3230348D01*
X4575251Y3228474D01*
X4578374Y3225350D01*
X4582434Y3224414D01*
X4584620Y3223477D01*
X4587743Y3220353D01*
X4590866Y3219104D01*
X4594302Y3218167D01*
X4596488Y3216606D01*
X4598986Y3214107D01*
X4603359Y3212858D01*
X4607731Y3210360D01*
X4610854Y3207236D01*
X4616476Y3205987D01*
X4618662Y3204426D01*
X4619287Y3203176D01*
X4620224Y3202239D01*
X4623347Y3200990D01*
X4626782Y3200053D01*
X4630218Y3197867D01*
X4631467Y3195993D01*
X4634590Y3194744D01*
X4637713Y3194119D01*
X4641148Y3191309D01*
X4642710Y3189747D01*
X4646145Y3188810D01*
X4648332Y3187873D01*
X4651767Y3185062D01*
X4656764Y3181939D01*
X4657076Y3181627D01*
X4657389Y3181315D01*
X4656764Y3176318D01*
X4655827Y3175381D01*
X4653329Y3174756D01*
X4649893Y3173819D01*
X4647707Y3172258D01*
X4645209Y3169759D01*
X4641148Y3168822D01*
X4638962Y3167885D01*
X4637401Y3166948D01*
X4636776Y3165699D01*
X4635215Y3164138D01*
X4630842Y3162888D01*
X4628344Y3162264D01*
X4624908Y3159453D01*
X4624596Y3158516D01*
X4621473Y3157267D01*
X4618975Y3156642D01*
X4615851Y3154768D01*
X4613353Y3152270D01*
X4610230Y3151021D01*
X4606794Y3150084D01*
X4604608Y3148522D01*
X4601485Y3145399D01*
X4595863Y3144150D01*
X4593053Y3141963D01*
X4592740Y3141027D01*
X4591491Y3140402D01*
X4588368Y3139153D01*
X4585869Y3138528D01*
X4582434Y3135717D01*
X4580872Y3134156D01*
X4576500Y3132907D01*
X4573377Y3131657D01*
X4569629Y3127910D01*
X4567131Y3127285D01*
X4562134Y3125411D01*
X4558386Y3121663D01*
X4553389Y3120414D01*
X4550578Y3118853D01*
X4549954Y3117603D01*
X4548392Y3116042D01*
X4544020Y3114793D01*
X4541521Y3114168D01*
X4537149Y3109796D01*
X4533089Y3108859D01*
X4529966Y3107609D01*
X4528092Y3105735D01*
X4527780Y3104798D01*
X4526530Y3104174D01*
X4524657Y3103549D01*
X4522158Y3102925D01*
X4518098Y3100739D01*
X4517473Y3099489D01*
X4516537Y3098552D01*
X4513413Y3097303D01*
X4509353Y3096366D01*
X4508416Y3095429D01*
X4507167Y3094805D01*
X4504044Y3091682D01*
X4499672Y3090432D01*
X4496549Y3088558D01*
X4495299Y3087309D01*
X4494050Y3086684D01*
X4492801Y3085435D01*
X4489365Y3084498D01*
X4486242Y3083249D01*
X4482807Y3079814D01*
X4478747Y3078877D01*
X4476561Y3077940D01*
X4473750Y3075129D01*
X4473125Y3072631D01*
X4473750Y3070757D01*
X4474999Y3069507D01*
X4475624Y3068258D01*
X4476873Y3067009D01*
X4477498Y3065135D01*
X4480309Y3061700D01*
X4482495Y3059514D01*
X4485618Y3053892D01*
X4488741Y3050769D01*
X4491239Y3046396D01*
X4493426Y3044835D01*
X4494987Y3043273D01*
X4495612Y3042024D01*
X4497173Y3039838D01*
X4498423Y3039213D01*
X4500609Y3037027D01*
X4501233Y3035778D01*
X4502795Y3033592D01*
X4504044Y3032967D01*
X4507479Y3030156D01*
X4509041Y3027970D01*
X4510290Y3027345D01*
X4514663Y3024222D01*
X4517161Y3021724D01*
X4518410Y3021099D01*
X4524032Y3016727D01*
X4525281Y3015478D01*
X4526530Y3014853D01*
X4529966Y3012042D01*
X4532152Y3009856D01*
X4538086Y3007670D01*
X4541521Y3004235D01*
X4544644Y3002985D01*
X4547768Y3001111D01*
X4550891Y2997988D01*
X4553389Y2997364D01*
X4559011Y2996114D01*
X4563383Y2992991D01*
X4567755Y2991117D01*
X4573065Y2990180D01*
X4576500Y2987994D01*
X4578374Y2986121D01*
X4582746Y2984871D01*
X4587119Y2984247D01*
X4592116Y2981124D01*
X4598362Y2979250D01*
X4610542Y2978313D01*
X4615539Y2976439D01*
X4622722Y2974253D01*
X4627719Y2973003D01*
X4651455Y2972379D01*
X4653329Y2971754D01*
X4677064Y2972379D01*
X4678938Y2973003D01*
X4692055Y2973628D01*
X4693929Y2974253D01*
X4697989Y2975190D01*
X4700487Y2975814D01*
X4706734Y2977063D01*
X4711731Y2978313D01*
X4716728Y2978937D01*
X4722662Y2979874D01*
X4727034Y2982997D01*
X4730157Y2984247D01*
X4732656Y2984871D01*
X4738589Y2985808D01*
X4746397Y2989868D01*
X4750770Y2991117D01*
X4755142Y2991742D01*
X4759514Y2996114D01*
X4765448Y2998301D01*
X4767634Y2999862D01*
X4770133Y3002361D01*
X4774193Y3003298D01*
X4776379Y3004859D01*
X4779502Y3007982D01*
X4783875Y3009231D01*
X4786998Y3011105D01*
X4790121Y3014228D01*
X4791370Y3014853D01*
X4794181Y3017039D01*
X4794805Y3018289D01*
X4795742Y3019225D01*
X4796992Y3019850D01*
X4798241Y3021099D01*
X4799490Y3021724D01*
X4803238Y3025472D01*
X4804487Y3026096D01*
X4805736Y3027345D01*
X4806986Y3027970D01*
X4811358Y3032342D01*
X4812607Y3032967D01*
X4816042Y3035778D01*
X4818853Y3038589D01*
X4821976Y3040463D01*
X4824787Y3045772D01*
X4827910Y3048895D01*
X4831034Y3054517D01*
X4831970Y3055453D01*
X4833220Y3056078D01*
X4834156Y3057015D01*
X4837280Y3062637D01*
X4839466Y3064198D01*
X4841027Y3065760D01*
X4841652Y3068258D01*
X4844463Y3071694D01*
X4846024Y3073255D01*
X4847586Y3077315D01*
X4849772Y3080751D01*
X4852270Y3084498D01*
X4853207Y3089183D01*
X4856331Y3094180D01*
X4858517Y3098240D01*
X4859141Y3100739D01*
X4859766Y3104486D01*
X4862577Y3107922D01*
X4864138Y3109483D01*
X4865388Y3113856D01*
X4866012Y3120727D01*
X4867886Y3125099D01*
X4869135Y3128222D01*
X4870384Y3132594D01*
X4871009Y3135093D01*
X4871634Y3144462D01*
X4873508Y3148834D01*
X4875382Y3155081D01*
X4876318Y3181627D01*
X4876631Y3195681D01*
X4876006Y3197555D01*
X4875382Y3201303D01*
X4874757Y3203176D01*
X4873508Y3208173D01*
X4871634Y3215044D01*
X4871009Y3217543D01*
X4870384Y3231909D01*
X4867886Y3236281D01*
X4865388Y3241903D01*
X4864763Y3247525D01*
X4862265Y3251897D01*
X4859766Y3255645D01*
X4859141Y3260017D01*
X4858517Y3262515D01*
X4857892Y3265639D01*
X4854769Y3268762D01*
X4853520Y3271885D01*
X4852583Y3275320D01*
X4851021Y3277507D01*
X4847898Y3280629D01*
X4847274Y3283128D01*
X4846024Y3286251D01*
X4841652Y3290624D01*
X4840715Y3294059D01*
X4839153Y3296245D01*
X4836030Y3299368D01*
X4835406Y3301867D01*
X4834156Y3304990D01*
X4832595Y3306551D01*
X4831346Y3307176D01*
X4829784Y3308738D01*
X4829160Y3309987D01*
X4827598Y3312173D01*
X4826349Y3312798D01*
X4825100Y3314047D01*
X4824163Y3314359D01*
X4823538Y3315608D01*
X4820727Y3319044D01*
X4819478Y3319668D01*
X4817292Y3321855D01*
X4816667Y3323104D01*
X4815106Y3324665D01*
X4813856Y3325290D01*
X4811045Y3328101D01*
X4810421Y3329350D01*
X4803238Y3336533D01*
X4798865Y3339032D01*
X4796367Y3342155D01*
X4792931Y3343092D01*
X4789808Y3344966D01*
X4789184Y3346215D01*
X4787622Y3347776D01*
X4784499Y3349026D01*
X4781376Y3350900D01*
X4779814Y3353086D01*
X4778253Y3354647D01*
X4774817Y3355584D01*
X4773880Y3356521D01*
X4772631Y3357146D01*
X4771694Y3358083D01*
X4771070Y3359332D01*
X4767634Y3360893D01*
X4762950Y3361830D01*
X4762013Y3362767D01*
X4761076Y3363080D01*
X4760451Y3364329D01*
X4759514Y3365266D01*
X4756391Y3366515D01*
X4750457Y3367452D01*
X4747022Y3369638D01*
X4745148Y3371512D01*
X4740151Y3372761D01*
X4736403Y3373386D01*
X4730157Y3377758D01*
X4725160Y3379007D01*
X4717040Y3379632D01*
X4712668Y3381506D01*
X4708608Y3382443D01*
X4703298Y3384004D01*
X4700800Y3384629D01*
X4689557Y3385254D01*
X4686434Y3386503D01*
X4683935Y3387128D01*
X4650518Y3388064D01*
X4643959Y3388377D01*
D02*
G37*
G36*
X4855081Y2896175D02*
X4843214Y2895550D01*
X4473125Y2895863D01*
X4470002Y2893989D01*
X4468753Y2890866D01*
X4469378Y2711599D01*
X4470002Y2709725D01*
X4471251Y2702230D01*
X4471876Y2689113D01*
X4473125Y2685990D01*
X4475311Y2680056D01*
X4476561Y2676933D01*
X4477185Y2673810D01*
X4477810Y2668188D01*
X4478747Y2666002D01*
X4480621Y2664128D01*
X4481245Y2662879D01*
X4483119Y2658506D01*
X4483744Y2654134D01*
X4485305Y2651948D01*
X4486555Y2651323D01*
X4487492Y2650386D01*
X4488741Y2647263D01*
X4489365Y2644765D01*
X4491239Y2642266D01*
X4491552Y2641954D01*
X4492801Y2640705D01*
X4493738Y2640392D01*
X4494362Y2639143D01*
X4497486Y2633522D01*
X4501233Y2629774D01*
X4501858Y2628525D01*
X4504669Y2625714D01*
X4505918Y2625089D01*
X4508729Y2622278D01*
X4509353Y2621029D01*
X4516537Y2616969D01*
X4519659Y2613846D01*
X4525281Y2610723D01*
X4527155Y2608849D01*
X4530278Y2607600D01*
X4534651Y2606975D01*
X4537773Y2605726D01*
X4540272Y2603227D01*
X4543395Y2601978D01*
X4549641Y2601354D01*
X4556512Y2600729D01*
X4559635Y2599480D01*
X4568380Y2598231D01*
X4580248Y2597606D01*
X4595239Y2598231D01*
X4597113Y2598855D01*
X4601797Y2599792D01*
X4605233Y2600729D01*
X4611479Y2601354D01*
X4615851Y2601978D01*
X4622722Y2605726D01*
X4624596Y2606351D01*
X4627094Y2606975D01*
X4631155Y2607912D01*
X4633341Y2609474D01*
X4635839Y2611972D01*
X4641773Y2614158D01*
X4644272Y2616657D01*
X4644896Y2617906D01*
X4648644Y2620404D01*
X4654890Y2626651D01*
X4657389Y2631023D01*
X4659575Y2632585D01*
X4661136Y2634146D01*
X4662073Y2638831D01*
X4663635Y2641017D01*
X4666133Y2643516D01*
X4667383Y2648513D01*
X4668007Y2651636D01*
X4671130Y2656008D01*
X4673004Y2660380D01*
X4673629Y2669750D01*
X4675190Y2671311D01*
X4677689Y2671936D01*
X4683310Y2671311D01*
X4684560Y2670062D01*
X4685809Y2669437D01*
X4687370Y2666002D01*
X4687995Y2664753D01*
X4692992Y2659756D01*
X4694866Y2656633D01*
X4695803Y2655696D01*
X4701424Y2652573D01*
X4703923Y2650074D01*
X4708295Y2647576D01*
X4711418Y2644452D01*
X4714541Y2643203D01*
X4719226Y2642266D01*
X4729532Y2637582D01*
X4732031Y2636957D01*
X4741400Y2636332D01*
X4743274Y2635708D01*
X4747646Y2635083D01*
X4762325Y2634771D01*
X4782625Y2636332D01*
X4784499Y2636957D01*
X4793244Y2637582D01*
X4799490Y2640080D01*
X4805112Y2642579D01*
X4809484Y2643203D01*
X4813544Y2644765D01*
X4815106Y2646951D01*
X4816355Y2647576D01*
X4819478Y2648825D01*
X4821976Y2649449D01*
X4824163Y2651011D01*
X4824787Y2652260D01*
X4826973Y2654447D01*
X4828223Y2655071D01*
X4831658Y2657882D01*
X4840403Y2666627D01*
X4841652Y2669750D01*
X4842589Y2671311D01*
X4843838Y2671936D01*
X4846649Y2674747D01*
X4847586Y2678807D01*
X4848835Y2681930D01*
X4851646Y2684741D01*
X4852895Y2689113D01*
X4853832Y2693798D01*
X4855081Y2696921D01*
X4856643Y2700356D01*
X4857892Y2704728D01*
X4859141Y2709725D01*
X4859766Y2720344D01*
X4860391Y2722218D01*
X4861015Y2734086D01*
X4861640Y2744080D01*
X4861952Y2890553D01*
X4860703Y2893676D01*
X4859454Y2894926D01*
X4855081Y2896175D01*
D02*
G37*
G36*
X4846337Y2528897D02*
X4841964Y2528273D01*
X4840090Y2528897D01*
X4641773Y2528585D01*
X4635215Y2528897D01*
X4633341Y2528273D01*
X4627094Y2527648D01*
X4590242Y2527024D01*
X4588368Y2526399D01*
X4584308Y2525462D01*
X4581809Y2524837D01*
X4575563Y2523588D01*
X4570566Y2522339D01*
X4567443Y2521714D01*
X4559323Y2521090D01*
X4556825Y2520465D01*
X4551828Y2517342D01*
X4547768Y2515780D01*
X4542146Y2515156D01*
X4536212Y2511096D01*
X4532777Y2509534D01*
X4528717Y2507973D01*
X4525906Y2505162D01*
X4521534Y2503288D01*
X4520284Y2502663D01*
X4518723Y2501727D01*
X4518098Y2500477D01*
X4515912Y2498291D01*
X4514663Y2497666D01*
X4513413Y2496417D01*
X4512164Y2495793D01*
X4507792Y2491420D01*
X4506542Y2490796D01*
X4501233Y2485486D01*
X4500609Y2484237D01*
X4495612Y2479240D01*
X4494987Y2477991D01*
X4492176Y2474555D01*
X4489365Y2471745D01*
X4486867Y2467372D01*
X4485930Y2466435D01*
X4484681Y2465811D01*
X4483119Y2461751D01*
X4482495Y2459252D01*
X4479684Y2455817D01*
X4478122Y2454255D01*
X4476873Y2449883D01*
X4476248Y2446760D01*
X4473438Y2443324D01*
X4471876Y2439889D01*
X4470314Y2433330D01*
X4466254Y2424273D01*
X4465630Y2421775D01*
X4465005Y2417403D01*
X4464380Y2409907D01*
X4462507Y2405535D01*
X4461258Y2400538D01*
X4460008Y2393042D01*
X4459384Y2386796D01*
X4459071Y2340262D01*
X4459696Y2332766D01*
X4460321Y2329019D01*
X4461570Y2322148D01*
X4462195Y2319649D01*
X4463131Y2316214D01*
X4465005Y2308719D01*
X4465630Y2301223D01*
X4470627Y2290604D01*
X4471876Y2282484D01*
X4475624Y2278737D01*
X4476873Y2275613D01*
X4477498Y2270616D01*
X4480309Y2267181D01*
X4481870Y2265620D01*
X4484368Y2258749D01*
X4486555Y2256562D01*
X4487492Y2256250D01*
X4488116Y2255001D01*
X4489365Y2251878D01*
X4491239Y2248755D01*
X4492176Y2247818D01*
X4493426Y2247193D01*
X4496549Y2242196D01*
X4501858Y2236887D01*
X4502482Y2235638D01*
X4503419Y2234701D01*
X4504669Y2234076D01*
X4506230Y2232514D01*
X4506855Y2231265D01*
X4508416Y2229704D01*
X4509666Y2229079D01*
X4515912Y2222833D01*
X4517161Y2222208D01*
X4518723Y2220022D01*
X4520909Y2217836D01*
X4525281Y2215337D01*
X4528404Y2212214D01*
X4531840Y2211278D01*
X4535587Y2208154D01*
X4537773Y2205968D01*
X4541834Y2205031D01*
X4544957Y2203782D01*
X4548392Y2200347D01*
X4557137Y2198473D01*
X4561509Y2195350D01*
X4564008Y2194725D01*
X4565882Y2194100D01*
X4568380Y2193476D01*
X4575251Y2192851D01*
X4578374Y2191602D01*
X4580872Y2190977D01*
X4585245Y2190352D01*
X4587743Y2189728D01*
X4592116Y2188479D01*
X4596488Y2187854D01*
X4606482Y2187230D01*
X4615539Y2187542D01*
X4623971Y2186605D01*
X4632092Y2185980D01*
X4858829Y2186605D01*
X4861640Y2188791D01*
X4862265Y2191289D01*
X4861640Y2201283D01*
X4861015Y2284358D01*
X4859454Y2285920D01*
X4856955Y2286544D01*
X4854144Y2286857D01*
X4647082Y2286544D01*
X4645209Y2287169D01*
X4610230Y2287793D01*
X4608356Y2288418D01*
X4605857Y2289043D01*
X4601485Y2289668D01*
X4598986Y2290292D01*
X4594614Y2292166D01*
X4589617Y2293415D01*
X4588993D01*
X4583683Y2294352D01*
X4581497Y2295289D01*
X4578374Y2298412D01*
X4575251Y2299661D01*
X4573377Y2300286D01*
X4571816Y2301223D01*
X4571191Y2302472D01*
X4569629Y2304658D01*
X4568380Y2305283D01*
X4565569Y2307469D01*
X4564945Y2308719D01*
X4562134Y2311529D01*
X4560885Y2312154D01*
X4559948Y2313091D01*
X4558699Y2316214D01*
X4558074Y2317463D01*
X4553702Y2321835D01*
X4553077Y2326208D01*
X4551515Y2330268D01*
X4548080Y2337451D01*
X4547455Y2339950D01*
X4546831Y2364310D01*
X4547455Y2366183D01*
X4548080Y2378676D01*
X4551203Y2383673D01*
X4552452Y2386796D01*
X4553077Y2389295D01*
X4554014Y2392730D01*
X4555575Y2394916D01*
X4558074Y2397415D01*
X4561197Y2403036D01*
X4567755Y2409595D01*
X4569005Y2410219D01*
X4571191Y2412406D01*
X4571816Y2413655D01*
X4573377Y2415216D01*
X4576500Y2416466D01*
X4579935Y2419276D01*
X4580872Y2420213D01*
X4585245Y2421463D01*
X4588993Y2422087D01*
X4592740Y2424586D01*
X4597113Y2425210D01*
X4599611Y2425835D01*
X4603047Y2426772D01*
X4608668Y2427396D01*
X4630842Y2427084D01*
X4632716Y2427709D01*
X4858829Y2428333D01*
X4861015Y2429895D01*
X4861640Y2432393D01*
X4861952Y2523900D01*
X4860391Y2526087D01*
X4859454Y2527024D01*
X4854457Y2528273D01*
X4846337Y2528897D01*
D02*
G37*
G36*
X4856955Y2137884D02*
X4778877Y2137260D01*
X4777941Y2136323D01*
X4777316Y2133824D01*
X4777941Y2127578D01*
Y2080107D01*
X4777316Y2055747D01*
X4776379Y2054810D01*
X4773880Y2054185D01*
X4769508Y2053561D01*
X4765136Y2054185D01*
X4479996Y2053873D01*
X4473438Y2054185D01*
X4469378Y2051999D01*
X4468753Y2049500D01*
X4469378Y1955807D01*
X4470939Y1954246D01*
X4473438Y1953621D01*
X4776379Y1952996D01*
X4777316Y1952060D01*
X4777941Y1949561D01*
X4777628Y1872420D01*
X4778877Y1870546D01*
X4781376Y1869922D01*
X4788872Y1869297D01*
X4790745Y1868672D01*
X4856331Y1869297D01*
X4858204Y1869922D01*
X4861328Y1871796D01*
X4862265Y1875231D01*
X4861640Y1879603D01*
X4861952Y2134761D01*
X4860391Y2136947D01*
X4856955Y2137884D01*
D02*
G37*
G36*
X4852583Y1821201D02*
X4472813Y1820577D01*
X4469378Y1817766D01*
X4468753Y1815267D01*
X4469378Y1602271D01*
X4470939Y1600710D01*
X4474062Y1599461D01*
X4478435Y1598836D01*
X4550266Y1599461D01*
X4552452Y1601647D01*
X4553077Y1604145D01*
X4552452Y1614139D01*
X4553077Y1718451D01*
X4554638Y1720013D01*
X4557137Y1720637D01*
X4623347Y1720013D01*
X4624284Y1719076D01*
X4625533Y1715953D01*
X4626158Y1607893D01*
X4627719Y1606332D01*
X4632092Y1605707D01*
X4639587Y1606332D01*
X4641461Y1605707D01*
X4701112Y1606019D01*
X4707046Y1605707D01*
X4709232Y1607268D01*
X4709857Y1611641D01*
X4709232Y1613515D01*
X4709857Y1718451D01*
X4710794Y1720013D01*
X4713292Y1720637D01*
X4775754Y1720013D01*
X4777316Y1718451D01*
X4777941Y1715953D01*
X4777628Y1603208D01*
X4778565Y1601022D01*
X4779502Y1600085D01*
X4784499Y1598836D01*
X4856955Y1599461D01*
X4861328Y1601959D01*
X4862265Y1604770D01*
X4861640Y1611016D01*
Y1774667D01*
X4861952Y1816829D01*
X4860391Y1819015D01*
X4856955Y1820577D01*
X4852583Y1821201D01*
D02*
G37*
G36*
X4856331Y1530752D02*
X4471564Y1530127D01*
X4470002Y1528566D01*
X4468753Y1524194D01*
X4469378Y1308075D01*
X4470314Y1307138D01*
X4475311Y1305888D01*
X4483431Y1306513D01*
X4549954Y1306201D01*
X4552140Y1307138D01*
X4553077Y1309949D01*
X4552452Y1321816D01*
X4553077Y1427377D01*
X4554638Y1429564D01*
X4559011Y1430813D01*
X4570879Y1430188D01*
X4793868D01*
X4851021Y1430501D01*
X4856955Y1430188D01*
X4860078Y1432062D01*
X4861640Y1433623D01*
X4862265Y1436122D01*
X4861640Y1446116D01*
X4861952Y1522008D01*
X4861328Y1527005D01*
X4858829Y1530127D01*
X4856331Y1530752D01*
D02*
G37*
%LPD*%
G36*
X4785124Y3662586D02*
X4786685Y3659150D01*
X4786061Y3624796D01*
X4785436Y3622922D01*
X4784811Y3619799D01*
X4784499Y3619487D01*
X4783875Y3611367D01*
X4782938Y3609180D01*
X4779814Y3604808D01*
X4778877Y3601373D01*
X4775754Y3596376D01*
X4772319Y3592940D01*
X4771694Y3591691D01*
X4769508Y3589505D01*
X4768259Y3588880D01*
X4767010Y3587631D01*
X4763887Y3585757D01*
X4761700Y3583571D01*
X4761388Y3582634D01*
X4758265Y3581385D01*
X4752644Y3580760D01*
X4749520Y3579511D01*
X4747022Y3578886D01*
X4742649Y3578262D01*
X4733593Y3577949D01*
X4725472Y3578574D01*
X4722974Y3579199D01*
X4717665Y3580760D01*
X4713917Y3581385D01*
X4709545Y3584508D01*
X4707671Y3586382D01*
X4705172Y3587007D01*
X4702049Y3588880D01*
X4696740Y3594190D01*
X4695490Y3597313D01*
X4693304Y3599499D01*
X4691118Y3600436D01*
X4690494Y3602934D01*
X4689869Y3607931D01*
X4688620Y3611054D01*
X4687370Y3615427D01*
X4684247Y3623547D01*
X4684872Y3662273D01*
X4685809Y3663210D01*
X4785124Y3662586D01*
D02*
G37*
G36*
X4780751Y2795611D02*
X4783250Y2794986D01*
X4786061Y2792176D01*
X4786685Y2785929D01*
X4786061Y2765317D01*
X4785436Y2763443D01*
X4783562Y2756572D01*
X4782938Y2752200D01*
X4782001Y2748140D01*
X4780439Y2745954D01*
X4777941Y2743455D01*
X4775130Y2738146D01*
X4773880Y2737521D01*
X4770445Y2734710D01*
X4768884Y2732524D01*
X4765761Y2731275D01*
X4757953Y2728464D01*
X4754517Y2727527D01*
X4750145Y2726903D01*
X4738902Y2727527D01*
X4733280Y2730026D01*
X4728283Y2731275D01*
X4725160Y2732524D01*
X4721725Y2735335D01*
X4719538Y2737521D01*
X4718289Y2738146D01*
X4716728Y2739083D01*
X4716103Y2740332D01*
X4712980Y2745954D01*
X4710482Y2748452D01*
X4709232Y2753449D01*
X4708608Y2760944D01*
X4707358Y2764692D01*
Y2765317D01*
X4706734Y2769689D01*
X4706109Y2779683D01*
X4706734Y2791551D01*
X4709545Y2794986D01*
X4714541Y2796235D01*
X4723911Y2795611D01*
X4725785Y2796235D01*
X4772944Y2795923D01*
X4778877Y2796235D01*
X4780751Y2795611D01*
D02*
G37*
G36*
X4627094D02*
X4629281Y2794049D01*
X4630530Y2790926D01*
X4629905Y2744080D01*
X4629281Y2742206D01*
Y2739707D01*
Y2739083D01*
X4628656Y2737209D01*
X4627719Y2732524D01*
X4627094Y2730026D01*
X4626470Y2723779D01*
X4623347Y2718782D01*
X4622410Y2717845D01*
X4621785Y2715347D01*
X4617413Y2709725D01*
X4615851Y2708164D01*
X4614602Y2707539D01*
X4613353Y2706290D01*
X4612104Y2705665D01*
X4608356Y2701918D01*
X4604296Y2700981D01*
X4601797Y2700356D01*
X4598362Y2699419D01*
X4595863Y2698794D01*
X4590554Y2697858D01*
X4582746Y2697545D01*
X4580872Y2698170D01*
X4576188Y2699107D01*
X4572128Y2700668D01*
X4569629Y2701293D01*
X4566506Y2702542D01*
X4564320Y2704728D01*
X4563695Y2705978D01*
X4559948Y2708476D01*
X4557137Y2711912D01*
X4553702Y2715347D01*
X4552765Y2719407D01*
X4548080Y2728464D01*
X4547455Y2730963D01*
X4546831Y2743455D01*
X4546206Y2745329D01*
X4545269Y2750638D01*
X4544332Y2769065D01*
X4544020Y2774374D01*
X4544332Y2783431D01*
X4543707Y2785305D01*
X4544332Y2791551D01*
X4547143Y2794986D01*
X4549017Y2795611D01*
X4551515Y2796235D01*
X4627094Y2795611D01*
D02*
G37*
D42*
X2615500Y4503500D02*
G03*
X2615500Y4503500I-12500J0D01*
G01*
X469984Y3417590D02*
G03*
X469984Y3417590I-12500J0D01*
G01*
X2943555Y799821D02*
G03*
X2943555Y799821I-12500J0D01*
G01*
X2924775Y4886000D02*
G03*
X2924775Y4886000I-12500J0D01*
G01*
X1771281Y802300D02*
G03*
X1771281Y802300I-12500J0D01*
G01*
X873305D02*
G03*
X873305Y802300I-12500J0D01*
G01*
X3649011Y1685812D02*
G03*
X3649011Y1685812I-12500J0D01*
G01*
X2417783Y1351800D02*
G03*
X2417783Y1351800I-12500J0D01*
G01*
X1500805D02*
G03*
X1500805Y1351800I-12500J0D01*
G01*
X499578Y2916712D02*
G03*
X499578Y2916712I-12500J0D01*
G01*
X1326000Y3940200D02*
G03*
X1326000Y3940200I-12500J0D01*
G01*
X3187306Y4768500D02*
G03*
X3187306Y4768500I-12500J0D01*
G01*
X3879116Y3170322D02*
G03*
X3879116Y3170322I-12500J0D01*
G01*
D43*
X1053000Y4843500D02*
X2543000D01*
Y4268500D02*
Y4611000D01*
Y4796000D02*
Y4843500D01*
X1053000Y4268500D02*
X2543000D01*
X1053000D02*
Y4843500D01*
X2812707Y3936030D02*
Y4055670D01*
X2998529Y3936030D02*
Y4055670D01*
X724984Y3022590D02*
Y3342590D01*
X359984Y3022590D02*
Y3342590D01*
X2998555Y1034821D02*
X3738555D01*
Y459821D02*
Y1034821D01*
X2998555Y459821D02*
X3738555D01*
X2998555D02*
Y1034821D01*
X1826281Y1037300D02*
X2566281D01*
Y462300D02*
Y1037300D01*
X1826281Y462300D02*
X2566281D01*
X1826281D02*
Y1037300D01*
X928305D02*
X1668305D01*
Y462300D02*
Y1037300D01*
X928305Y462300D02*
X1668305D01*
X928305D02*
Y1037300D01*
X1298305Y2576822D02*
Y2711822D01*
X1537105Y1951722D02*
Y2271722D01*
X1047105Y1951722D02*
X1537105D01*
X1047105D02*
Y2271722D01*
X1537105D01*
X1550105Y2306722D02*
Y2459222D01*
X3694951Y1278312D02*
Y1593312D01*
X3379951Y1278312D02*
X3380571D01*
X3694331D02*
X3694951D01*
X3379951D02*
Y1593312D01*
X3380571D01*
X3694331D02*
X3694951D01*
X3307592Y1421005D02*
Y1622218D01*
X3137592Y1421005D02*
Y1622218D01*
X2460281Y1944322D02*
Y2264322D01*
X1970281Y1944322D02*
X2460281D01*
X1970281D02*
Y2264322D01*
X2460281D01*
X2473281Y2299322D02*
Y2451822D01*
X2069283Y1186800D02*
X2135283D01*
X2069283D02*
Y1268300D01*
X2295283Y1186800D02*
X2361283D01*
Y1268300D01*
X2219282Y2594822D02*
Y2729822D01*
X2114675Y1624600D02*
X2315888D01*
X2114675Y1454600D02*
X2315888D01*
X1152305Y1186800D02*
X1218305D01*
X1152305D02*
Y1268300D01*
X1378305Y1186800D02*
X1444305D01*
Y1268300D01*
X1466388Y1624600D02*
X1667602D01*
X1466388Y1454600D02*
X1667602D01*
X1839547Y1624600D02*
X2040760D01*
X1839547Y1454600D02*
X2040760D01*
X1192534Y1624600D02*
X1393747D01*
X1192534Y1454600D02*
X1393747D01*
X2386746Y1624600D02*
X2587960D01*
X2386746Y1454600D02*
X2587960D01*
X147078Y1366712D02*
Y2856712D01*
X379578D02*
X722078D01*
X147078D02*
X194578D01*
X722078Y1366712D02*
Y2856712D01*
X147078Y1366712D02*
X722078D01*
X907501Y1454600D02*
X1108714D01*
X907501Y1624600D02*
X1108714D01*
X3134806Y2154822D02*
Y2776822D01*
Y2154822D02*
X3807805D01*
Y2776822D01*
X3798805D02*
X3807805D01*
X3134806D02*
X3143805D01*
X3899105Y2446422D02*
X4034105D01*
X2868506Y2336422D02*
Y2556422D01*
X3083505Y2336422D02*
Y2556422D01*
X746699Y3984700D02*
Y4204700D01*
X961699Y3984700D02*
Y4204700D01*
X1471000Y3905200D02*
X2101000D01*
Y3275200D02*
Y3905200D01*
X1471000Y3275200D02*
X2101000D01*
X1471000D02*
Y3905200D01*
X446699Y3918350D02*
X661699D01*
X446699Y4133350D02*
X661699D01*
X138054Y3995850D02*
Y4215850D01*
X353054Y3995850D02*
Y4215850D01*
X351451Y3530199D02*
Y3750199D01*
X136451Y3530199D02*
Y3750199D01*
X605984Y3530200D02*
Y3750200D01*
X390984Y3530200D02*
Y3750200D01*
X3344805Y4533500D02*
Y4678500D01*
X3422305Y4381000D02*
X3717305D01*
X3794805Y4533500D02*
Y4678500D01*
X3422305Y4831000D02*
X3717305D01*
X3955809Y4513098D02*
Y4733098D01*
X4170809Y4513098D02*
Y4733098D01*
X3313805Y3610822D02*
X3628806D01*
X3313805Y3110822D02*
X3628806D01*
X3523099Y3720321D02*
X3724312D01*
X3523099Y3890322D02*
X3724312D01*
X3911805Y3030622D02*
X4046805D01*
X3911805Y3411622D02*
X4046805D01*
X4021085Y3699711D02*
X4140726D01*
X4021085Y3885532D02*
X4140726D01*
D44*
X-0Y4114423D02*
X0Y4114423D01*
X797878Y2196610D02*
X900245D01*
Y2145426D01*
X883184Y2128365D01*
X849061D01*
X832000Y2145426D01*
Y2196610D01*
Y2162487D02*
X797878Y2128365D01*
X900245Y2094243D02*
X797878Y2025998D01*
X900245D02*
X797878Y2094243D01*
X900245Y2482610D02*
Y2414366D01*
Y2448488D01*
X797878D01*
X900245Y2380243D02*
X797878Y2311998D01*
X900245D02*
X797878Y2380243D01*
X824177Y1794804D02*
Y1896371D01*
X776378Y1611572D02*
X877945D01*
X827161Y1662355D02*
Y1560788D01*
X3180855Y325520D02*
X3282423D01*
X3459901Y326303D02*
X3561468D01*
X3510685Y377087D02*
Y275520D01*
D45*
X4546303Y1236400D02*
X4478059D01*
X4443936Y1202277D01*
X4478059Y1168155D01*
X4546303D01*
X4529242Y1134033D02*
X4546303Y1116971D01*
Y1082849D01*
X4529242Y1065788D01*
X4460997D01*
X4443936Y1082849D01*
Y1116971D01*
X4460997Y1134033D01*
X4529242D01*
X4443936Y1031665D02*
X4460997D01*
Y1014604D01*
X4443936D01*
Y1031665D01*
Y946360D02*
Y912237D01*
Y929298D01*
X4546303D01*
X4529242Y946360D01*
X2316045Y4910255D02*
X2287787D01*
X2061911Y4897895D02*
Y4926152D01*
X2047783Y4912024D02*
X2076040D01*
X1795315Y4917817D02*
X1788251Y4924881D01*
X1774122D01*
X1767058Y4917817D01*
Y4889559D01*
X1774122Y4882495D01*
X1788251D01*
X1795315Y4889559D01*
X1809444Y4924881D02*
Y4882495D01*
X1837702D01*
X1851830Y4924881D02*
Y4882495D01*
Y4896623D01*
X1880088Y4924881D01*
X1858895Y4903688D01*
X1880088Y4882495D01*
X1521975Y4924881D02*
Y4882495D01*
X1543169D01*
X1550233Y4889559D01*
Y4917817D01*
X1543169Y4924881D01*
X1521975D01*
X1564362D02*
X1578490D01*
X1571426D01*
Y4882495D01*
X1564362D01*
X1578490D01*
X1620877Y4924881D02*
X1606748D01*
X1599684Y4917817D01*
Y4889559D01*
X1606748Y4882495D01*
X1620877D01*
X1627941Y4889559D01*
Y4917817D01*
X1620877Y4924881D01*
X1278171Y4882495D02*
Y4924881D01*
X1299364D01*
X1306428Y4917817D01*
Y4903688D01*
X1299364Y4896623D01*
X1278171D01*
X1292299D02*
X1306428Y4882495D01*
X1348814Y4917817D02*
X1341750Y4924881D01*
X1327621D01*
X1320557Y4917817D01*
Y4910752D01*
X1327621Y4903688D01*
X1341750D01*
X1348814Y4896623D01*
Y4889559D01*
X1341750Y4882495D01*
X1327621D01*
X1320557Y4889559D01*
D46*
X1426154Y375653D02*
X1417423Y384383D01*
X1399962D01*
X1391232Y375653D01*
Y340731D01*
X1399962Y332000D01*
X1417423D01*
X1426154Y340731D01*
X1443615Y332000D02*
Y366922D01*
X1461076Y384383D01*
X1478537Y366922D01*
Y332000D01*
Y358192D01*
X1443615D01*
X1495998Y332000D02*
Y384383D01*
X1530919Y332000D01*
Y384383D01*
X1583302Y332000D02*
X1548380D01*
X1583302Y366922D01*
Y375653D01*
X1574572Y384383D01*
X1557111D01*
X1548380Y375653D01*
X1600763Y384383D02*
Y332000D01*
Y358192D01*
X1635685D01*
Y384383D01*
Y332000D01*
X1034905Y375653D02*
X1026174Y384383D01*
X1008714D01*
X999983Y375653D01*
Y340731D01*
X1008714Y332000D01*
X1026174D01*
X1034905Y340731D01*
X1052366Y332000D02*
Y366922D01*
X1069827Y384383D01*
X1087288Y366922D01*
Y332000D01*
Y358192D01*
X1052366D01*
X1104749Y332000D02*
Y384383D01*
X1139671Y332000D01*
Y384383D01*
X1192054Y332000D02*
X1157132D01*
X1192054Y366922D01*
Y375653D01*
X1183323Y384383D01*
X1165862D01*
X1157132Y375653D01*
X1209515Y384383D02*
Y332000D01*
X1244437D01*
X1981699Y375653D02*
X1972969Y384383D01*
X1955508D01*
X1946777Y375653D01*
Y340731D01*
X1955508Y332000D01*
X1972969D01*
X1981699Y340731D01*
X1999160Y332000D02*
Y366922D01*
X2016621Y384383D01*
X2034082Y366922D01*
Y332000D01*
Y358192D01*
X1999160D01*
X2051543Y332000D02*
Y384383D01*
X2086465Y332000D01*
Y384383D01*
X2103926Y332000D02*
X2121387D01*
X2112656D01*
Y384383D01*
X2103926Y375653D01*
X2147578Y384383D02*
Y332000D01*
X2182500D01*
X2312219Y375653D02*
X2303488Y384383D01*
X2286027D01*
X2277297Y375653D01*
Y340731D01*
X2286027Y332000D01*
X2303488D01*
X2312219Y340731D01*
X2329680Y332000D02*
Y366922D01*
X2347141Y384383D01*
X2364602Y366922D01*
Y332000D01*
Y358192D01*
X2329680D01*
X2382063Y332000D02*
Y384383D01*
X2416985Y332000D01*
Y384383D01*
X2434446Y332000D02*
X2451907D01*
X2443176D01*
Y384383D01*
X2434446Y375653D01*
X2478098Y384383D02*
Y332000D01*
Y358192D01*
X2513020D01*
Y384383D01*
Y332000D01*
X2852635Y4249967D02*
Y4292354D01*
X2873828D01*
X2880892Y4285289D01*
Y4271161D01*
X2873828Y4264096D01*
X2852635D01*
X2866764D02*
X2880892Y4249967D01*
X2895021D02*
X2909150D01*
X2902086D01*
Y4292354D01*
X2895021Y4285289D01*
X2930343D02*
X2937408Y4292354D01*
X2951536D01*
X2958601Y4285289D01*
Y4257032D01*
X2951536Y4249967D01*
X2937408D01*
X2930343Y4257032D01*
Y4285289D01*
X951044Y4849693D02*
X936915D01*
X943979D01*
Y4814372D01*
X936915Y4807307D01*
X929851D01*
X922786Y4814372D01*
X993430Y4807307D02*
X965172D01*
X993430Y4835565D01*
Y4842629D01*
X986366Y4849693D01*
X972237D01*
X965172Y4842629D01*
X2712628Y4828500D02*
Y4786114D01*
X2733821D01*
X2740886Y4793179D01*
Y4821436D01*
X2733821Y4828500D01*
X2712628D01*
X2755014Y4821436D02*
X2762079Y4828500D01*
X2776208D01*
X2783272Y4821436D01*
Y4814372D01*
X2776208Y4807307D01*
X2769143D01*
X2776208D01*
X2783272Y4800243D01*
Y4793179D01*
X2776208Y4786114D01*
X2762079D01*
X2755014Y4793179D01*
X3050183Y1590489D02*
Y1630476D01*
X3070176D01*
X3076841Y1623811D01*
Y1610482D01*
X3070176Y1603817D01*
X3050183D01*
X3063512D02*
X3076841Y1590489D01*
X3090170Y1597153D02*
X3096834Y1590489D01*
X3110163D01*
X3116828Y1597153D01*
Y1623811D01*
X3110163Y1630476D01*
X3096834D01*
X3090170Y1623811D01*
Y1617147D01*
X3096834Y1610482D01*
X3116828D01*
X3779806Y1590993D02*
Y1617651D01*
X3773141Y1624316D01*
X3759812D01*
X3753148Y1617651D01*
Y1590993D01*
X3759812Y1584329D01*
X3773141D01*
X3766477Y1597657D02*
X3779806Y1584329D01*
X3773141D02*
X3779806Y1590993D01*
X3793135Y1584329D02*
X3806464D01*
X3799799D01*
Y1624316D01*
X3793135Y1617651D01*
X324761Y3445741D02*
Y3438676D01*
X338890Y3424548D01*
X353019Y3438676D01*
Y3445741D01*
X338890Y3424548D02*
Y3403354D01*
X395405D02*
X367148D01*
X395405Y3431612D01*
Y3438676D01*
X388341Y3445741D01*
X374212D01*
X367148Y3438676D01*
X514740Y4222393D02*
Y4215329D01*
X528869Y4201200D01*
X542998Y4215329D01*
Y4222393D01*
X528869Y4201200D02*
Y4180007D01*
X557126D02*
X571255D01*
X564191D01*
Y4222393D01*
X557126Y4215329D01*
X3025684Y3569564D02*
Y3534242D01*
X3032748Y3527177D01*
X3046877D01*
X3053941Y3534242D01*
Y3569564D01*
X3096328Y3527177D02*
X3068070D01*
X3096328Y3555435D01*
Y3562499D01*
X3089263Y3569564D01*
X3075135D01*
X3068070Y3562499D01*
X3055248Y2824078D02*
Y2788756D01*
X3062312Y2781691D01*
X3076441D01*
X3083505Y2788756D01*
Y2824078D01*
X3097634Y2781691D02*
X3111763D01*
X3104699D01*
Y2824078D01*
X3097634Y2817013D01*
X3247444Y4912024D02*
X3240380Y4919088D01*
X3226251D01*
X3219186Y4912024D01*
Y4904959D01*
X3226251Y4897895D01*
X3240380D01*
X3247444Y4890831D01*
Y4883766D01*
X3240380Y4876702D01*
X3226251D01*
X3219186Y4883766D01*
X3261573Y4919088D02*
Y4876702D01*
X3275701Y4890831D01*
X3289830Y4876702D01*
Y4919088D01*
X3303959Y4876702D02*
X3318088D01*
X3311023D01*
Y4919088D01*
X3303959Y4912024D01*
X4045584Y3914340D02*
Y3956726D01*
X4066777D01*
X4073841Y3949662D01*
Y3935533D01*
X4066777Y3928468D01*
X4045584D01*
X4059712D02*
X4073841Y3914340D01*
X4087970Y3949662D02*
X4095034Y3956726D01*
X4109163D01*
X4116227Y3949662D01*
Y3942597D01*
X4109163Y3935533D01*
X4116227Y3928468D01*
Y3921404D01*
X4109163Y3914340D01*
X4095034D01*
X4087970Y3921404D01*
Y3928468D01*
X4095034Y3935533D01*
X4087970Y3942597D01*
Y3949662D01*
X4095034Y3935533D02*
X4109163D01*
X3405029Y3780220D02*
Y3822607D01*
X3426222D01*
X3433286Y3815542D01*
Y3801414D01*
X3426222Y3794349D01*
X3405029D01*
X3419158D02*
X3433286Y3780220D01*
X3447415Y3822607D02*
X3475673D01*
Y3815542D01*
X3447415Y3787285D01*
Y3780220D01*
X1840679Y1651967D02*
Y1694354D01*
X1861872D01*
X1868936Y1687289D01*
Y1673161D01*
X1861872Y1666096D01*
X1840679D01*
X1854807D02*
X1868936Y1651967D01*
X1911322Y1694354D02*
X1897194Y1687289D01*
X1883065Y1673161D01*
Y1659032D01*
X1890129Y1651967D01*
X1904258D01*
X1911322Y1659032D01*
Y1666096D01*
X1904258Y1673161D01*
X1883065D01*
X2475075Y1649663D02*
Y1692049D01*
X2496268D01*
X2503333Y1684985D01*
Y1670856D01*
X2496268Y1663792D01*
X2475075D01*
X2489204D02*
X2503333Y1649663D01*
X2545719Y1692049D02*
X2517461D01*
Y1670856D01*
X2531590Y1677921D01*
X2538655D01*
X2545719Y1670856D01*
Y1656728D01*
X2538655Y1649663D01*
X2524526D01*
X2517461Y1656728D01*
X1262611Y1649876D02*
Y1692262D01*
X1283804D01*
X1290868Y1685198D01*
Y1671069D01*
X1283804Y1664005D01*
X1262611D01*
X1276740D02*
X1290868Y1649876D01*
X1326190D02*
Y1692262D01*
X1304997Y1671069D01*
X1333255D01*
X897075Y1645746D02*
Y1688132D01*
X918268D01*
X925332Y1681068D01*
Y1666939D01*
X918268Y1659875D01*
X897075D01*
X911204D02*
X925332Y1645746D01*
X939461Y1681068D02*
X946526Y1688132D01*
X960654D01*
X967719Y1681068D01*
Y1674004D01*
X960654Y1666939D01*
X953590D01*
X960654D01*
X967719Y1659875D01*
Y1652811D01*
X960654Y1645746D01*
X946526D01*
X939461Y1652811D01*
X2192678Y1649663D02*
Y1692049D01*
X2213871D01*
X2220936Y1684985D01*
Y1670856D01*
X2213871Y1663792D01*
X2192678D01*
X2206807D02*
X2220936Y1649663D01*
X2263322D02*
X2235064D01*
X2263322Y1677921D01*
Y1684985D01*
X2256258Y1692049D01*
X2242129D01*
X2235064Y1684985D01*
X1540957Y1646886D02*
Y1689272D01*
X1562151D01*
X1569215Y1682208D01*
Y1668079D01*
X1562151Y1661015D01*
X1540957D01*
X1555086D02*
X1569215Y1646886D01*
X1583344D02*
X1597472D01*
X1590408D01*
Y1689272D01*
X1583344Y1682208D01*
X824378Y2817667D02*
Y2831796D01*
Y2824731D01*
X789056D01*
X781992Y2831796D01*
Y2838860D01*
X789056Y2845924D01*
X824378Y2775281D02*
Y2803538D01*
X803185D01*
X810249Y2789409D01*
Y2782345D01*
X803185Y2775281D01*
X789056D01*
X781992Y2782345D01*
Y2796474D01*
X789056Y2803538D01*
X938344Y1135979D02*
X924215D01*
X931280D01*
Y1100657D01*
X924215Y1093593D01*
X917151D01*
X910087Y1100657D01*
X973666Y1093593D02*
Y1135979D01*
X952473Y1114786D01*
X980730D01*
X1840936Y1127979D02*
X1826807D01*
X1833871D01*
Y1092657D01*
X1826807Y1085592D01*
X1819743D01*
X1812678Y1092657D01*
X1855064Y1120914D02*
X1862129Y1127979D01*
X1876258D01*
X1883322Y1120914D01*
Y1113850D01*
X1876258Y1106786D01*
X1869193D01*
X1876258D01*
X1883322Y1099721D01*
Y1092657D01*
X1876258Y1085592D01*
X1862129D01*
X1855064Y1092657D01*
X3024775Y1112513D02*
X3010647D01*
X3017711D01*
Y1077191D01*
X3010647Y1070127D01*
X3003582D01*
X2996518Y1077191D01*
X3038904Y1070127D02*
X3053033D01*
X3045969D01*
Y1112513D01*
X3038904Y1105449D01*
X1835017Y1977965D02*
X1849146D01*
X1842081D01*
Y1935579D01*
X1835017D01*
X1849146D01*
X1898596Y1970901D02*
X1891532Y1977965D01*
X1877403D01*
X1870339Y1970901D01*
Y1942644D01*
X1877403Y1935579D01*
X1891532D01*
X1898596Y1942644D01*
X1912725Y1970901D02*
X1919790Y1977965D01*
X1933918D01*
X1940983Y1970901D01*
Y1963837D01*
X1933918Y1956772D01*
X1926854D01*
X1933918D01*
X1940983Y1949708D01*
Y1942644D01*
X1933918Y1935579D01*
X1919790D01*
X1912725Y1942644D01*
X896838Y1985745D02*
X910966D01*
X903902D01*
Y1943359D01*
X896838D01*
X910966D01*
X960417Y1978681D02*
X953353Y1985745D01*
X939224D01*
X932160Y1978681D01*
Y1950423D01*
X939224Y1943359D01*
X953353D01*
X960417Y1950423D01*
X1002803Y1943359D02*
X974546D01*
X1002803Y1971616D01*
Y1978681D01*
X995739Y1985745D01*
X981610D01*
X974546Y1978681D01*
X1342081Y4047043D02*
X1356210D01*
X1349146D01*
Y4004657D01*
X1342081D01*
X1356210D01*
X1405661Y4039979D02*
X1398597Y4047043D01*
X1384468D01*
X1377403Y4039979D01*
Y4011722D01*
X1384468Y4004657D01*
X1398597D01*
X1405661Y4011722D01*
X1419790Y4004657D02*
X1433918D01*
X1426854D01*
Y4047043D01*
X1419790Y4039979D01*
X2069353Y1154993D02*
Y1112607D01*
X2090546D01*
X2097610Y1119671D01*
Y1147929D01*
X2090546Y1154993D01*
X2069353D01*
X2139997Y1112607D02*
X2111739D01*
X2139997Y1140864D01*
Y1147929D01*
X2132932Y1154993D01*
X2118804D01*
X2111739Y1147929D01*
X1145048Y1151800D02*
Y1109414D01*
X1166241D01*
X1173305Y1116478D01*
Y1144736D01*
X1166241Y1151800D01*
X1145048D01*
X1187434Y1109414D02*
X1201563D01*
X1194498D01*
Y1151800D01*
X1187434Y1144736D01*
X4116000Y3528614D02*
X4108936Y3535678D01*
X4094807D01*
X4087743Y3528614D01*
Y3500356D01*
X4094807Y3493292D01*
X4108936D01*
X4116000Y3500356D01*
X4130129Y3493292D02*
X4144258D01*
X4137193D01*
Y3535678D01*
X4130129Y3528614D01*
X4165451Y3535678D02*
X4193708D01*
Y3528614D01*
X4165451Y3500356D01*
Y3493292D01*
X4136725Y3139696D02*
X4129661Y3146760D01*
X4115532D01*
X4108467Y3139696D01*
Y3111439D01*
X4115532Y3104374D01*
X4129661D01*
X4136725Y3111439D01*
X4150854Y3104374D02*
X4164982D01*
X4157918D01*
Y3146760D01*
X4150854Y3139696D01*
X4214433Y3146760D02*
X4200304Y3139696D01*
X4186176Y3125567D01*
Y3111439D01*
X4193240Y3104374D01*
X4207369D01*
X4214433Y3111439D01*
Y3118503D01*
X4207369Y3125567D01*
X4186176D01*
X4039692Y4842629D02*
X4032627Y4849693D01*
X4018499D01*
X4011434Y4842629D01*
Y4814372D01*
X4018499Y4807307D01*
X4032627D01*
X4039692Y4814372D01*
X4053820Y4807307D02*
X4067949D01*
X4060885D01*
Y4849693D01*
X4053820Y4842629D01*
X4117400Y4849693D02*
X4089142D01*
Y4828500D01*
X4103271Y4835565D01*
X4110336D01*
X4117400Y4828500D01*
Y4814372D01*
X4110336Y4807307D01*
X4096207D01*
X4089142Y4814372D01*
X2201755Y2826451D02*
X2194690Y2833515D01*
X2180562D01*
X2173497Y2826451D01*
Y2798194D01*
X2180562Y2791129D01*
X2194690D01*
X2201755Y2798194D01*
X2215883Y2791129D02*
X2230012D01*
X2222948D01*
Y2833515D01*
X2215883Y2826451D01*
X2272399Y2791129D02*
Y2833515D01*
X2251205Y2812322D01*
X2279463D01*
X228353Y3361719D02*
X221288Y3368783D01*
X207160D01*
X200095Y3361719D01*
Y3333462D01*
X207160Y3326397D01*
X221288D01*
X228353Y3333462D01*
X242481Y3326397D02*
X256610D01*
X249546D01*
Y3368783D01*
X242481Y3361719D01*
X277803D02*
X284868Y3368783D01*
X298997D01*
X306061Y3361719D01*
Y3354655D01*
X298997Y3347590D01*
X291932D01*
X298997D01*
X306061Y3340526D01*
Y3333462D01*
X298997Y3326397D01*
X284868D01*
X277803Y3333462D01*
X831258Y3356719D02*
X824194Y3363783D01*
X810065D01*
X803001Y3356719D01*
Y3328462D01*
X810065Y3321397D01*
X824194D01*
X831258Y3328462D01*
X845387Y3321397D02*
X859516D01*
X852451D01*
Y3363783D01*
X845387Y3356719D01*
X908966Y3321397D02*
X880709D01*
X908966Y3349655D01*
Y3356719D01*
X901902Y3363783D01*
X887773D01*
X880709Y3356719D01*
X482323Y3861769D02*
X475258Y3868833D01*
X461130D01*
X454065Y3861769D01*
Y3833512D01*
X461130Y3826447D01*
X475258D01*
X482323Y3833512D01*
X496451Y3826447D02*
X510580D01*
X503516D01*
Y3868833D01*
X496451Y3861769D01*
X531773Y3826447D02*
X545902D01*
X538838D01*
Y3868833D01*
X531773Y3861769D01*
X1273207Y2806304D02*
X1266143Y2813369D01*
X1252014D01*
X1244950Y2806304D01*
Y2778047D01*
X1252014Y2770982D01*
X1266143D01*
X1273207Y2778047D01*
X1287336Y2770982D02*
X1301465D01*
X1294401D01*
Y2813369D01*
X1287336Y2806304D01*
X1322658D02*
X1329723Y2813369D01*
X1343851D01*
X1350916Y2806304D01*
Y2778047D01*
X1343851Y2770982D01*
X1329723D01*
X1322658Y2778047D01*
Y2806304D01*
X251565Y3862794D02*
X244501Y3869858D01*
X230372D01*
X223308Y3862794D01*
Y3834536D01*
X230372Y3827472D01*
X244501D01*
X251565Y3834536D01*
X265694D02*
X272758Y3827472D01*
X286887D01*
X293951Y3834536D01*
Y3862794D01*
X286887Y3869858D01*
X272758D01*
X265694Y3862794D01*
Y3855729D01*
X272758Y3848665D01*
X293951D01*
X235103Y4316246D02*
X228038Y4323310D01*
X213910D01*
X206845Y4316246D01*
Y4287989D01*
X213910Y4280924D01*
X228038D01*
X235103Y4287989D01*
X249231Y4316246D02*
X256296Y4323310D01*
X270425D01*
X277489Y4316246D01*
Y4309182D01*
X270425Y4302117D01*
X277489Y4295053D01*
Y4287989D01*
X270425Y4280924D01*
X256296D01*
X249231Y4287989D01*
Y4295053D01*
X256296Y4302117D01*
X249231Y4309182D01*
Y4316246D01*
X256296Y4302117D02*
X270425D01*
X851135Y4316246D02*
X844071Y4323310D01*
X829942D01*
X822878Y4316246D01*
Y4287989D01*
X829942Y4280924D01*
X844071D01*
X851135Y4287989D01*
X865264Y4323310D02*
X893521D01*
Y4316246D01*
X865264Y4287989D01*
Y4280924D01*
X2802711Y2568449D02*
X2795647Y2575514D01*
X2781518D01*
X2774454Y2568449D01*
Y2540192D01*
X2781518Y2533127D01*
X2795647D01*
X2802711Y2540192D01*
X2845097Y2575514D02*
X2830969Y2568449D01*
X2816840Y2554321D01*
Y2540192D01*
X2823904Y2533127D01*
X2838033D01*
X2845097Y2540192D01*
Y2547256D01*
X2838033Y2554321D01*
X2816840D01*
X4119062Y2545837D02*
X4111998Y2552901D01*
X4097869D01*
X4090805Y2545837D01*
Y2517580D01*
X4097869Y2510515D01*
X4111998D01*
X4119062Y2517580D01*
X4133191Y2510515D02*
X4147320D01*
X4140255D01*
Y2552901D01*
X4133191Y2545837D01*
%TF.MD5,09ee01404a73d14be965b4b8d8437638*%
M02*
