M48
;Layer_Color=9474304
;FILE_FORMAT=4:4
METRIC,LZ
;TYPE=PLATED
T01F00S00C0.3000
T02F00S00C0.9000
T03F00S00C1.0000
T04F00S00C3.2000
;TYPE=NON_PLATED
T05F00S00C1.1000
%
T01
X0003Y0003
X0009
X0012
X0015
X0018
X0021
X0024
X0027
X003
X0033
X0036
X0039
X00375Y0006
X00345
X00315
X00285
X00255
X00225
X00195
X00165
X00135
X00105
X0009Y0009
X0006
X0003
X00045Y0012
X00075
X00105
X00165
X00195
X0018Y0015
X00165Y0018
X00159275Y00238292
X0015975Y00252142
X00165Y003
X00135
X00105
X00075
X0009Y0027
X00122995Y00221189
X00075Y0018
X0006Y0015
X0003
Y0021
Y0039
X00067848Y0037802
X00075Y0036
X0012Y0039
Y0033
X0015
X0018
X00195Y0036
X00165
X00243178Y0036002
X00291141Y00368642
X003Y0039
X0033
X0036
X00345Y0036
X003Y0033
X0027
X00285Y003
X003Y0027
X0027
X00285Y0024
X00255
X0021507Y00220941
X00255Y0018
X00285
X003Y0015
X0027
X00285Y0012
X00315
X003Y0009
X0027
X00255Y0012
X0018Y0009
X0039
X00375Y0012
X0039Y0015
Y0027
X0027Y0039
X00405Y0036
X00435
X00465
X0048Y0039
X0045
Y0033
X00424117Y00329401
X00435Y003
X00465
X0048Y0033
Y0027
X0045
X00465Y0024
X00435
X0045Y0021
X0048
X00465Y0018
X00435
X00405
X00416145Y00195332
X0042Y0015
X0045
X0048
X00465Y0012
X00435
X00405
X0042Y0009
X0045
X0048
X00405Y0006
X0042Y0003
X00435Y0042
X00465
X0048Y0045
X0042
X00435Y0048
X00405
Y0042
X00345
X00315
Y0048
X00345
X00255
X00225
X00195
X00165
X00135
X00105
X00075
X00045
Y0042
X00105
X0009Y0045
X00255Y0042
T02
X00048708Y00161171
Y00186171
Y00211171
Y00236171
Y00261171
X001298Y0045035
X001548
X001798
X002048
X002298
T03
X00117331Y0008023
X00142331
X00207128
X00232128
X00324356Y00079982
X00349356
T04
X0005Y0005
X0045
Y0045
X0005
T05
X00028708Y00277171
X002458Y0047035
M30
