M48
;Layer_Color=9474304
;FILE_FORMAT=4:4
METRIC,LZ
;TYPE=PLATED
T01F00S00C0.3000
T02F00S00C0.9000
T03F00S00C1.0000
T04F00S00C3.2000
;TYPE=NON_PLATED
T05F00S00C1.1000
%
T01
X0003Y0003
Y0009
X0006
X0009
X00075Y0012
X00045
X0003Y0015
X0006
X00075Y0018
X0003Y0021
X00122995Y00221189
X00159275Y00238292
X0015975Y00252142
X00165Y003
X00135
X00105
X00075
X0009Y0027
X0012Y0033
X0015
X0018
X00165Y0036
X00195
X00243178Y0036002
X00291141Y00368642
X003Y0039
X0027
Y0033
X003
X00285Y003
X0027Y0027
X003
X00285Y0024
X00255
X0021507Y00220941
X00255Y0018
X00285
X0027Y0015
X003
X00285Y0012
X00255
X0027Y0009
X003
X00285Y0006
X00255
X00225
X00195
X00165
X00135
X00105
X0009Y0003
X0012
X0015
X0018
X0021
X0024
X0027
X003
X0033
X0036
X0039
X00375Y0006
X00345
X00315
Y0012
X00375
X0039Y0009
Y0015
Y0027
X00345Y0036
X0033Y0039
X0036
X0012
X00067848Y0037802
X00075Y0036
X0003Y0039
X00105Y0012
X00165
X00195
X0018Y0009
Y0015
X00165Y0018
X00405
X00416145Y00195332
X00435Y0018
X00465
X0045Y0015
X0042
X00405Y0012
X00435
X00465
X0045Y0009
X0042
X00405Y0006
X0042Y0003
X0048Y0009
Y0015
Y0021
X0045
X00435Y0024
X00465
X0045Y0027
X0048
X00465Y003
X00435
X00424117Y00329401
X0045Y0033
X0048
X00465Y0036
X00435
X00405
X0045Y0039
X0048
X00465Y0042
X00435
X00405
X0042Y0045
X00405Y0048
X00435
X0048Y0045
X00345Y0042
X00315
X00255
Y0048
X00225
X00195
X00165
X00135
X00105
X00075
X00045
Y0042
X00105
X0009Y0045
X00315Y0048
X00345
T02
X00048708Y00161171
Y00186171
Y00211171
Y00236171
Y00261171
X001298Y0045035
X001548
X001798
X002048
X002298
T03
X00117331Y0008023
X00142331
X00207128
X00232128
X00324356Y00079982
X00349356
T04
X0005Y0005
X0045
Y0045
X0005
T05
X00028708Y00277171
X002458Y0047035
M30
